<svg xmlns="http://www.w3.org/2000/svg" width="43.52" height="39.783" viewBox="0 0 43.52 39.783"><defs><style>.a{fill:#ffaa25;}.b{fill:#0094d0;}.c{fill:#fff;}.d{fill:#f9dc00;}.e{fill:#eb413d;}.f{fill:#ea3732;}.g{fill:#8cbc5b;}.h{fill:#e71626;}.i{fill:#e85e94;}.j{fill:#00a8e2;}.k{fill:#005296;}</style></defs><g transform="translate(3527.418 -334.333)"><g transform="translate(-3527.418 341.783)"><g transform="translate(0 0)"><path class="a" d="M-3527.418,549.768v-4.7a2.181,2.181,0,0,1,2.176-2.174h5.74a2.181,2.181,0,0,1,2.173,2.174v4.7a2.181,2.181,0,0,1-2.173,2.173h-5.743a2.173,2.173,0,0,1-2.173-2.173Z" transform="translate(3527.418 -542.896)"/></g></g><g transform="translate(-3525.303 365.374)"><path class="b" d="M-3466.124,1211.488a4.372,4.372,0,0,0,5.373-.637,4.371,4.371,0,0,0,0-6.182,4.371,4.371,0,0,0-6.182,0,4.373,4.373,0,0,0-.713,5.245A5.7,5.7,0,0,0-3466.124,1211.488Z" transform="translate(3468.213 -1203.388)"/></g><g transform="translate(-3523.458 367.47)"><g transform="translate(0 0)"><path class="c" d="M-3411.751,1264.542a2.319,2.319,0,0,0-2.335-2.3,2.4,2.4,0,0,0-.4.034,1.364,1.364,0,0,0-.721-.205,1.345,1.345,0,0,0-1.354,1.335,1.315,1.315,0,0,0,.186.675,2.315,2.315,0,0,0-.047.463,2.319,2.319,0,0,0,2.335,2.3,2.387,2.387,0,0,0,.427-.038,1.37,1.37,0,0,0,.64.158,1.344,1.344,0,0,0,1.354-1.335,1.318,1.318,0,0,0-.14-.593A2.293,2.293,0,0,0-3411.751,1264.542Zm-1.137,1.1a1.067,1.067,0,0,1-.475.355,1.931,1.931,0,0,1-.729.126,1.8,1.8,0,0,1-.836-.173,1.093,1.093,0,0,1-.385-.336.729.729,0,0,1-.149-.416.286.286,0,0,1,.1-.217.345.345,0,0,1,.244-.089.311.311,0,0,1,.205.07.52.52,0,0,1,.137.2,1.149,1.149,0,0,0,.134.234.517.517,0,0,0,.2.149.813.813,0,0,0,.339.06.831.831,0,0,0,.47-.121.337.337,0,0,0,.173-.287.281.281,0,0,0-.09-.218.649.649,0,0,0-.25-.136c-.105-.032-.25-.068-.428-.1a3.456,3.456,0,0,1-.612-.18,1.011,1.011,0,0,1-.4-.29.714.714,0,0,1-.152-.462.74.74,0,0,1,.159-.466.986.986,0,0,1,.453-.31,2.014,2.014,0,0,1,.686-.107,1.882,1.882,0,0,1,.545.071,1.212,1.212,0,0,1,.385.19.821.821,0,0,1,.227.251.546.546,0,0,1,.073.262.314.314,0,0,1-.1.222.324.324,0,0,1-.24.1.3.3,0,0,1-.2-.062.739.739,0,0,1-.139-.183.777.777,0,0,0-.21-.255.665.665,0,0,0-.39-.089.74.74,0,0,0-.4.1.264.264,0,0,0-.145.22.2.2,0,0,0,.047.134.415.415,0,0,0,.139.1,1.063,1.063,0,0,0,.188.072c.065.018.174.044.323.078.189.04.363.085.516.133a1.682,1.682,0,0,1,.4.18.79.79,0,0,1,.264.274.814.814,0,0,1,.095.406A.864.864,0,0,1-3412.888,1265.643Z" transform="translate(3416.559 -1262.069)"/></g></g><g transform="translate(-3503.935 334.333)"><path class="b" d="M-2863.294,334.976a4.373,4.373,0,0,0-5.373.637,4.371,4.371,0,0,0,0,6.182,4.371,4.371,0,0,0,6.182,0,4.372,4.372,0,0,0,.712-5.245A4.737,4.737,0,0,0-2863.294,334.976Z" transform="translate(2869.948 -334.333)"/></g><g transform="translate(-3521.122 360.154)"><g transform="translate(0 0)"><path class="d" d="M-3341.048,1064.1v-4.7a2.181,2.181,0,0,0-2.176-2.175h-5.74a2.181,2.181,0,0,0-2.173,2.175v4.7a2.181,2.181,0,0,0,2.173,2.173h5.743a2.173,2.173,0,0,0,2.173-2.173Z" transform="translate(3351.137 -1057.232)"/></g></g><g transform="translate(-3497.107 359.119)"><path class="e" d="M-2669.045,1034.1v1.978a1.136,1.136,0,0,1-1.135,1.136h-7.484a1.136,1.136,0,0,1-1.135-1.136v-6.663a1.136,1.136,0,0,1,1.135-1.136h7.484a1.136,1.136,0,0,1,1.135,1.136v4.684Z" transform="translate(2678.8 -1028.277)"/></g><g transform="translate(-3524.642 350.265)"><path class="f" d="M-3449.706,784.171v-2.406a1.381,1.381,0,0,1,1.381-1.381h9.1a1.381,1.381,0,0,1,1.381,1.381v8.1a1.381,1.381,0,0,1-1.381,1.381h-9.1a1.381,1.381,0,0,1-1.381-1.381v-5.7Z" transform="translate(3449.706 -780.384)"/></g><g transform="translate(-3495.338 360.647)"><g transform="translate(0 0)"><g transform="translate(3.829 1.295)"><path class="c" d="M-2520.763,1110.157h.288a.139.139,0,0,0,.139-.14v-1.011h1.009a.14.14,0,0,0,.139-.14v-.288a.14.14,0,0,0-.139-.14h-1.009v-1.011a.14.14,0,0,0-.139-.14h-.288a.14.14,0,0,0-.14.14v1.011h-1.009a.14.14,0,0,0-.14.14v.288a.14.14,0,0,0,.14.14h1.009v1.011A.14.14,0,0,0-2520.763,1110.157Z" transform="translate(2522.052 -1107.287)"/></g><path class="c" d="M-2628.12,1076.959a3.307,3.307,0,0,0,.815.1,2.6,2.6,0,0,0,.726-.1,1.448,1.448,0,0,0,1.159-1.323,1.377,1.377,0,0,0-.679-1.27,1.183,1.183,0,0,1-.409-.439c0-.124.011-.182.288-.4a1.326,1.326,0,0,0,.555-1.039,1.383,1.383,0,0,0-.292-.888h.143a.14.14,0,0,0,.082-.026l.4-.288a.138.138,0,0,0,.051-.156.14.14,0,0,0-.133-.1h-1.775a1.793,1.793,0,0,0-.585.1,1.528,1.528,0,0,0-1.1,1.344,1.428,1.428,0,0,0,1.452,1.431.767.767,0,0,0-.025.188.706.706,0,0,0,.1.354h-.023a1.937,1.937,0,0,0-1.777.969,1.052,1.052,0,0,0-.107.453.859.859,0,0,0,.111.419A1.581,1.581,0,0,0-2628.12,1076.959Zm.158-4.5a.919.919,0,0,1,.17-.726.462.462,0,0,1,.357-.165h.016a1.049,1.049,0,0,1,.837.976.953.953,0,0,1-.175.742.462.462,0,0,1-.361.165h-.007C-2627.51,1073.437-2627.893,1072.982-2627.962,1072.456Zm.754,2.441h.016a1.352,1.352,0,0,1,.381.058l.121.082c.28.191.464.318.516.52a.674.674,0,0,1,.018.151c0,.521-.388.785-1.153.785a.932.932,0,0,1-1.034-.811C-2628.342,1075.263-2627.812,1074.9-2627.208,1074.9Z" transform="translate(2629.262 -1071.033)"/></g></g><g transform="translate(-3522.44 351.65)"><g transform="translate(0 0)"><g transform="translate(5.618 5.076)"><path class="c" d="M-3230.577,961.258a.149.149,0,0,0-.13.054.292.292,0,0,0-.04.175v.2h.337v-.2a.291.291,0,0,0-.041-.175A.145.145,0,0,0-3230.577,961.258Z" transform="translate(3230.747 -961.258)"/></g><g transform="translate(4.313 5.069)"><path class="c" d="M-3267.126,961.072a.186.186,0,0,0-.081.019.275.275,0,0,0-.078.06v1.216a.333.333,0,0,0,.09.07.223.223,0,0,0,.093.021.124.124,0,0,0,.1-.042.22.22,0,0,0,.033-.135v-1.008a.241.241,0,0,0-.04-.15A.147.147,0,0,0-3267.126,961.072Z" transform="translate(3267.286 -961.072)"/></g><g transform="translate(0 3.519)"><path class="c" d="M-3381.871,917.69h-4.786a1.459,1.459,0,0,0-1.378,1.482V920.3a1.393,1.393,0,0,0,1.378,1.408h4.786a1.394,1.394,0,0,0,1.378-1.408v-1.132A1.459,1.459,0,0,0-3381.871,917.69Zm-3.781.954h-.445v2.26h-.43v-2.26h-.444v-.384h1.319Zm1.257,2.26h-.382v-.214a.808.808,0,0,1-.22.18.452.452,0,0,1-.222.062.233.233,0,0,1-.2-.087.425.425,0,0,1-.068-.262v-1.631h.382v1.5a.171.171,0,0,0,.023.1.093.093,0,0,0,.079.031.216.216,0,0,0,.107-.041.509.509,0,0,0,.118-.1v-1.482h.382Zm1.385-.4a.5.5,0,0,1-.09.318.314.314,0,0,1-.259.11.446.446,0,0,1-.2-.043.492.492,0,0,1-.163-.132v.149h-.386V918.26h.386v.852a.606.606,0,0,1,.163-.135.366.366,0,0,1,.177-.047.327.327,0,0,1,.276.124.592.592,0,0,1,.1.365Zm1.323-.526h-.73v.368a.428.428,0,0,0,.038.214.14.14,0,0,0,.129.059.154.154,0,0,0,.132-.051.426.426,0,0,0,.038-.223v-.089h.392v.1a.633.633,0,0,1-.144.452.561.561,0,0,1-.428.151.518.518,0,0,1-.4-.161.628.628,0,0,1-.147-.442v-.877a.556.556,0,0,1,.162-.414.567.567,0,0,1,.417-.159.529.529,0,0,1,.4.148.6.6,0,0,1,.141.425Z" transform="translate(3388.035 -917.69)"/></g><g transform="translate(1.429)"><path class="c" d="M-3348.031,819.156l.575,1.76v1.154h.484v-1.209l.563-1.705h-.492l-.3,1.165h-.03l-.314-1.165Z" transform="translate(3348.031 -819.156)"/></g><g transform="translate(3.086 0.71)"><path class="c" d="M-3301.465,839.189a.5.5,0,0,0-.173.4V840.7a.58.58,0,0,0,.168.436.629.629,0,0,0,.452.162.645.645,0,0,0,.46-.157.567.567,0,0,0,.167-.433V839.6a.522.522,0,0,0-.17-.4.624.624,0,0,0-.437-.156A.7.7,0,0,0-3301.465,839.189Zm.636.381v1.172a.183.183,0,0,1-.051.136.2.2,0,0,1-.139.049.167.167,0,0,1-.131-.049.191.191,0,0,1-.046-.137V839.57a.15.15,0,0,1,.049-.114.188.188,0,0,1,.128-.043.207.207,0,0,1,.138.043A.142.142,0,0,1-3300.829,839.57Z" transform="translate(3301.638 -839.041)"/></g><g transform="translate(4.681 0.765)"><path class="c" d="M-3255.762,842.717v-2.149h-.429V842.2a.6.6,0,0,1-.132.116.25.25,0,0,1-.12.045.1.1,0,0,1-.087-.035.178.178,0,0,1-.028-.11v-1.648h-.429v1.8a.46.46,0,0,0,.076.287.269.269,0,0,0,.225.1.53.53,0,0,0,.249-.069.915.915,0,0,0,.248-.2v.238Z" transform="translate(3256.988 -840.568)"/></g></g></g><g transform="translate(-3502.751 350.616)"><g transform="translate(0 0)"><path class="g" d="M-2826.733,797.08v-4.7a2.181,2.181,0,0,0-2.176-2.174h-5.74a2.181,2.181,0,0,0-2.173,2.174v4.7a2.181,2.181,0,0,0,2.173,2.173h5.743a2.173,2.173,0,0,0,2.173-2.173Z" transform="translate(2836.822 -790.208)"/></g></g><g transform="translate(-3508.066 340.969)"><path class="h" d="M-2973.759,527.189V529.6a1.381,1.381,0,0,1-1.381,1.381h-9.1a1.381,1.381,0,0,1-1.381-1.381v-8.1a1.381,1.381,0,0,1,1.381-1.381h9.1a1.381,1.381,0,0,1,1.381,1.381v5.7Z" transform="translate(2985.623 -520.111)"/></g><g transform="translate(-3515.236 347.741)"><path class="i" d="M-3183.534,720.642a5.9,5.9,0,0,0,7.251-.86,5.9,5.9,0,0,0,0-8.343,5.9,5.9,0,0,0-8.343,0,5.9,5.9,0,0,0-.962,7.079A8.412,8.412,0,0,0-3183.534,720.642Z" transform="translate(3186.353 -709.71)"/></g><g transform="translate(-3513.266 349.663)"><g transform="translate(0)"><path class="c" d="M-3123.725,765.907a3.856,3.856,0,0,0-.36-.662,3.9,3.9,0,0,0-.475-.577,3.947,3.947,0,0,0-.576-.476,3.907,3.907,0,0,0-.662-.36,3.9,3.9,0,0,0-.733-.227,3.92,3.92,0,0,0-.785-.079,3.928,3.928,0,0,0-.785.079,3.871,3.871,0,0,0-.732.227,3.881,3.881,0,0,0-.663.36,3.9,3.9,0,0,0-.577.476,3.96,3.96,0,0,0-.476.577,3.854,3.854,0,0,0-.359.662,3.892,3.892,0,0,0-.228.733,3.923,3.923,0,0,0-.079.785,3.932,3.932,0,0,0,.079.785,3.878,3.878,0,0,0,.228.732,3.867,3.867,0,0,0,.359.663,3.99,3.99,0,0,0,.476.577,3.926,3.926,0,0,0,.577.476,3.892,3.892,0,0,0,.663.359,3.872,3.872,0,0,0,.732.227,3.914,3.914,0,0,0,.785.079,3.907,3.907,0,0,0,.785-.079,3.9,3.9,0,0,0,.733-.227,3.918,3.918,0,0,0,.662-.359,3.973,3.973,0,0,0,.576-.476,3.925,3.925,0,0,0,.475-.577,3.869,3.869,0,0,0,.36-.663,3.877,3.877,0,0,0,.228-.732,3.932,3.932,0,0,0,.079-.785,3.923,3.923,0,0,0-.079-.785A3.891,3.891,0,0,0-3123.725,765.907Zm-3.591-1.812a3.317,3.317,0,0,1,2.2.831,3.624,3.624,0,0,1-1.739,1.206,16.843,16.843,0,0,0-1.244-1.942A3.328,3.328,0,0,1-3127.316,764.1Zm-.8.1h0l-.01,0Zm-.623.221a20.218,20.218,0,0,1,1.236,1.918,12.316,12.316,0,0,1-3.074.407A3.334,3.334,0,0,1-3128.736,764.413Zm-1.056,5.236a3.318,3.318,0,0,1-.853-2.225c0-.035,0-.07,0-.105a12.2,12.2,0,0,0,3.417-.474c.1.187.187.376.27.566l-.131.04a5.265,5.265,0,0,0-2.707,2.2Zm2.476,1.1a3.314,3.314,0,0,1-2.046-.706h0s-.031-.023-.075-.058c.024.02.05.038.075.057a4.513,4.513,0,0,1,2.612-2.079l.022-.007a13.812,13.812,0,0,1,.711,2.528A3.318,3.318,0,0,1-3127.316,770.754Zm1.86-.568a14.369,14.369,0,0,0-.648-2.378,4.828,4.828,0,0,1,2.074.145A3.33,3.33,0,0,1-3125.456,770.186Zm-.851-2.9c-.023-.057-.047-.114-.072-.172-.069-.163-.144-.324-.221-.483a4.283,4.283,0,0,0,1.855-1.318,3.314,3.314,0,0,1,.757,2.081A7.7,7.7,0,0,0-3126.307,767.282Z" transform="translate(3131.214 -763.526)"/></g></g><g transform="translate(-3525.156 343.499)"><g transform="translate(0 0)"><g transform="translate(0 4.139)"><path class="c" d="M-3464.029,707.071a3.833,3.833,0,0,0,2.518,1.182h.062a4.093,4.093,0,0,0,1.99-.6l0,0a1.962,1.962,0,0,0,.224-.155.176.176,0,0,0,.075-.138.166.166,0,0,0-.17-.16.187.187,0,0,0-.083.019l-.089.038-.043.018-.055.022h0a5.2,5.2,0,0,1-1.8.4h-.064a4.932,4.932,0,0,1-2.408-.84.172.172,0,0,0-.079-.021.139.139,0,0,0-.094.036.127.127,0,0,0-.04.094A.148.148,0,0,0-3464.029,707.071Z" transform="translate(3464.087 -706.827)"/></g><g transform="translate(4.383 3.928)"><path class="c" d="M-3340.207,701.16a.258.258,0,0,0-.039-.139l0,0,0,0a.191.191,0,0,0-.074-.048.94.94,0,0,0-.32-.045,1.456,1.456,0,0,0-.308.032v-.007l-.107.036h0l-.061.02v0a.963.963,0,0,0-.2.109.154.154,0,0,0-.07.121.115.115,0,0,0,.041.087.129.129,0,0,0,.083.028h.027c.052-.011.128-.018.218-.031a2.2,2.2,0,0,1,.228-.015.621.621,0,0,1,.125.01.141.141,0,0,1,.033.011l0,0a.105.105,0,0,1,0,.031,1.035,1.035,0,0,1-.058.275c-.033.107-.074.214-.1.285a.143.143,0,0,0-.01.054.116.116,0,0,0,.036.086.119.119,0,0,0,.082.032h0a.17.17,0,0,0,.1-.039,1.254,1.254,0,0,0,.37-.854v-.035Z" transform="translate(3341.389 -700.92)"/></g><g transform="translate(0.992)"><path class="c" d="M-3434.216,592.5c-.16.012-.344.024-.528.049a2.72,2.72,0,0,0-.8.2,1.181,1.181,0,0,0-.762,1.155,1,1,0,0,0,1.057,1.094,2.041,2.041,0,0,0,.5-.061,1.531,1.531,0,0,0,.663-.455,1.925,1.925,0,0,0,.405.467.173.173,0,0,0,.172-.012c.148-.123.405-.344.54-.467a.133.133,0,0,0,.012-.184.92.92,0,0,1-.27-.652v-1.106c0-.467.037-.9-.307-1.216a1.65,1.65,0,0,0-1.068-.356h-.148a1.393,1.393,0,0,0-1.437,1.081.115.115,0,0,0,.1.147l.688.086a.156.156,0,0,0,.123-.135.561.561,0,0,1,.528-.43h.049a.482.482,0,0,1,.393.185.924.924,0,0,1,.086.516Zm-.135,1.462a.6.6,0,0,1-.393.32c-.024,0-.061.012-.1.012-.27,0-.429-.209-.429-.516a.646.646,0,0,1,.528-.664,2.427,2.427,0,0,1,.528-.049v.147A1.31,1.31,0,0,1-3434.351,593.964Z" transform="translate(3436.304 -590.954)"/></g></g></g><g transform="translate(-3504.624 343.14)"><g transform="translate(0 0)"><path class="c" d="M-2888.123,587.37a.052.052,0,0,0,.092.022,3.967,3.967,0,0,0,.7-1.226c.047-.167.272-1.03.272-1.03a1.12,1.12,0,0,0,.946.467c1.245,0,2.089-1.1,2.089-2.568a2.284,2.284,0,0,0-2.452-2.146,2.53,2.53,0,0,0-2.767,2.341,1.436,1.436,0,0,0,.793,1.432.134.134,0,0,0,.194-.094c.018-.066.06-.232.079-.3a.178.178,0,0,0-.056-.209,1.059,1.059,0,0,1-.256-.735,1.806,1.806,0,0,1,1.906-1.795,1.43,1.43,0,0,1,1.612,1.436c0,1.081-.494,1.992-1.228,1.992a.586.586,0,0,1-.612-.722,7.8,7.8,0,0,0,.342-1.33.508.508,0,0,0-.522-.562c-.414,0-.747.415-.747.97a1.405,1.405,0,0,0,.124.593l-.5,2.042A4.08,4.08,0,0,0-2888.123,587.37Z" transform="translate(2889.243 -580.888)"/></g></g><g transform="translate(-3502.113 336.647)"><g transform="translate(0 0)"><path class="c" d="M-2818.272,402.509h.92a1.031,1.031,0,0,0,1-1.053s.044-.827-.592-.827a.565.565,0,0,0,.483-.633.827.827,0,0,0-.9-.887h-1.606v3.4h.686Zm0-2.808h.92s.223,0,.223.346-.131.4-.28.4h-.863Zm0,1.256h.92s.333,0,.333.457c0,.389-.249.429-.379.433h-.874Z" transform="translate(2818.958 -399.109)"/><g transform="translate(2.734 0.847)"><path class="c" d="M-2741.188,422.826a1.233,1.233,0,0,0-1.215,1.279,1.164,1.164,0,0,0,1.215,1.273s1.083.065,1.083-.886h-.557s.018.358-.507.358a.523.523,0,0,1-.557-.579h1.639S-2739.908,422.826-2741.188,422.826Zm-.544,1a.582.582,0,0,1,.557-.513.488.488,0,0,1,.482.513Z" transform="translate(2742.404 -422.826)"/></g><g transform="translate(3.27 0.196)"><rect class="c" width="1.305" height="0.314"/></g></g></g><g transform="translate(-3500.528 352.348)"><g transform="translate(0 0)"><g transform="translate(0 3.017)"><path class="c" d="M-2774.578,925.056l2.308.334v-2.208h-2.308Z" transform="translate(2774.578 -923.182)"/></g><g transform="translate(2.623 3.017)"><path class="c" d="M-2701.14,925.436l3.1.448v-2.7h-3.1Z" transform="translate(2701.14 -923.182)"/></g><g transform="translate(2.623)"><path class="c" d="M-2701.14,841.406h3.1v-2.7l-3.1.448Z" transform="translate(2701.14 -838.704)"/></g><g transform="translate(0 0.494)"><path class="c" d="M-2772.27,852.537l-2.308.334v1.874h2.308Z" transform="translate(2774.578 -852.537)"/></g></g></g><g transform="translate(-3519.055 361.876)"><g transform="translate(0)"><path class="c" d="M-3290.322,1105.46a1.683,1.683,0,0,0-1.03.327,1.659,1.659,0,0,0-.5.653,0,0,0,0,1,0,0,1.854,1.854,0,0,0-.08.8h0a3.659,3.659,0,0,1,.012.524l0,.012a.717.717,0,0,1-.258-.007h0c-.06-.01-.125-.035-.2-.055h0a.235.235,0,0,0-.193.044h0l0,0a.2.2,0,0,0-.106.159.09.09,0,0,0,0,.016.2.2,0,0,0,.066.108c.027.023.053.038.068.05l0,0a1.921,1.921,0,0,0,.4.176h0a.294.294,0,0,1,.182.174.491.491,0,0,1-.072.311s0,0,0,0a1.9,1.9,0,0,1-.616.706,1.487,1.487,0,0,1-.452.206l-.006,0a.256.256,0,0,0-.16.095.068.068,0,0,0-.009.017.137.137,0,0,0,.026.127.22.22,0,0,0,.069.054l0,0a1.619,1.619,0,0,0,.419.146h0a1.6,1.6,0,0,1,.26.065c0,.006.011.03.028.071.024.074.035.162.063.253a.077.077,0,0,0,.057.052.165.165,0,0,0,.1-.008h.007a1.631,1.631,0,0,1,.66-.022h0a2.539,2.539,0,0,1,.62.335h0a1,1,0,0,0,.493.182h0a3.358,3.358,0,0,0,.419-.01h0a.757.757,0,0,0,.33-.113l0,0c.224-.127.423-.28.641-.376h0a1.028,1.028,0,0,1,.258-.031h0a3.354,3.354,0,0,1,.541.028h.019a.1.1,0,0,0,.062-.034.11.11,0,0,0,.019-.038c0-.018.01-.027,0-.012a.08.08,0,0,0,.007-.015.755.755,0,0,1,.1-.266.158.158,0,0,1,.111-.034h.01a1.958,1.958,0,0,0,.431-.121l0,0a.37.37,0,0,0,.174-.116h0a.123.123,0,0,0-.038-.177h0l-.006,0h0a.731.731,0,0,0-.19-.069h0a1.636,1.636,0,0,1-.778-.568,1.775,1.775,0,0,1-.268-.467v0a.224.224,0,0,1,.01-.2h0a.552.552,0,0,1,.268-.171h0a1.051,1.051,0,0,0,.363-.186h0a.229.229,0,0,0,.053-.067.143.143,0,0,0,0-.12h0a.3.3,0,0,0-.127-.121h0a.269.269,0,0,0-.217-.02h0a1.379,1.379,0,0,1-.192.057h0a.444.444,0,0,1-.219,0c0-.009,0-.026,0-.048h0c0-.132.007-.268.009-.41h0a3.814,3.814,0,0,0-.017-.657s0,0,0,0a1.47,1.47,0,0,0-.615-.913,1.558,1.558,0,0,0-.753-.267h0a2.394,2.394,0,0,0-.269-.011Z" transform="translate(3293.286 -1105.459)"/></g></g><g transform="translate(-3519.031 335.914)"><path class="j" d="M-3291.573,381.943a7.032,7.032,0,0,0,1.025,8.641,7.03,7.03,0,0,0,9.942,0,7.029,7.029,0,0,0,0-9.943,7.032,7.032,0,0,0-8.435-1.146A9.441,9.441,0,0,0-3291.573,381.943Z" transform="translate(3292.606 -378.583)"/></g><g transform="translate(-3511.724 357.46)"><path class="j" d="M-3075.011,992.509a7.032,7.032,0,0,0-1.025-8.641,7.031,7.031,0,0,0-9.943,0,7.031,7.031,0,0,0,0,9.943,7.033,7.033,0,0,0,8.436,1.146A7.626,7.626,0,0,0-3075.011,992.509Z" transform="translate(3088.039 -981.808)"/></g><g transform="translate(-3516.384 339.589)"><g transform="translate(0 0)"><path class="c" d="M-3210.005,481.607a3.615,3.615,0,0,1-1.136.427,1.8,1.8,0,0,0-1.3-.556,1.775,1.775,0,0,0-1.788,1.76,1.778,1.778,0,0,0,.046.4,5.1,5.1,0,0,1-3.686-1.839,1.734,1.734,0,0,0-.242.885,1.754,1.754,0,0,0,.8,1.465,1.8,1.8,0,0,1-.81-.22v.022a1.769,1.769,0,0,0,1.435,1.726,1.813,1.813,0,0,1-.471.062,1.841,1.841,0,0,1-.337-.032,1.788,1.788,0,0,0,1.671,1.222,3.628,3.628,0,0,1-2.222.753,3.7,3.7,0,0,1-.427-.025,5.124,5.124,0,0,0,2.742.791,5.011,5.011,0,0,0,5.087-5.008c0-.076,0-.153,0-.228a3.6,3.6,0,0,0,.892-.911,3.6,3.6,0,0,1-1.027.277A1.767,1.767,0,0,0-3210.005,481.607Z" transform="translate(3218.481 -481.478)"/></g></g><g transform="translate(-3495.466 343.651)"><path class="k" d="M-2630.094,605.913a5.786,5.786,0,0,0,7.11-.843,5.785,5.785,0,0,0,0-8.181,5.784,5.784,0,0,0-8.18,0,5.786,5.786,0,0,0-.943,6.94A9.782,9.782,0,0,0-2630.094,605.913Z" transform="translate(2632.857 -595.195)"/></g><g transform="translate(-3491.467 345.944)"><g transform="translate(0 0)"><path class="c" d="M-2520.2,666.266l1.375,0s.006-1.9.01-3.438l1.021,0,.129-1.375-1.093,0,0-.55a.291.291,0,0,1,.3-.33l.772,0,0-1.178-1.062-.007a1.341,1.341,0,0,0-1.451,1.437l0,.622-.682,0,0,1.375.688,0C-2520.194,664.386-2520.2,666.266-2520.2,666.266Z" transform="translate(2520.877 -659.394)"/></g></g><g transform="translate(-3507.392 360.154)"><g transform="translate(0 0)"><path class="c" d="M-2966.718,1059.942c0,.379.009.761.011,1.142q0,.615,0,1.23a2.941,2.941,0,0,0,2.512,2.947c.4,0,1.988.037,2.274.037s1.107-.075,1.107-.9a1.013,1.013,0,0,0-.976-1.117h-1.573c-1.118,0-1.3-.49-1.3-.944,0-.216.014-.571.027-1.007H-2962c.394,0,1.143-.16,1.143-.872s-.346-1.178-.81-1.178h-2.927c0-1.027-.071-2.05-1.083-2.05a.864.864,0,0,0-.9.594,5.62,5.62,0,0,0-.136,1.785C-2966.719,1059.721-2966.718,1059.832-2966.718,1059.942Z" transform="translate(2966.727 -1057.232)"/></g></g></g></svg>