<svg xmlns="http://www.w3.org/2000/svg" width="91.654" height="34.416" viewBox="0 0 91.654 34.416"><defs><style>.a{fill:#201c1d;}.b{fill:#f7a80d;}</style></defs><path class="a" d="M38.082,18.156c-1.794,0-3.8.691-4.216,2.966a.32.32,0,0,0,.27.392l1.839.22c.17-.009.286-.194.318-.368a1.439,1.439,0,0,1,1.52-1.152,1.227,1.227,0,0,1,1.054.49,2.532,2.532,0,0,1,.245,1.4v.27a12.8,12.8,0,0,0-3.554.662,3.291,3.291,0,0,0-2.01,3.162,2.71,2.71,0,0,0,2.819,3.015,3.692,3.692,0,0,0,3.113-1.4,4.625,4.625,0,0,0,1.079,1.275A.377.377,0,0,0,41,29.04v.024c.377-.344,1.061-.968,1.446-1.3a.373.373,0,0,0,0-.515,2.665,2.665,0,0,1-.711-1.789V22.446c0-1.277.108-2.454-.809-3.334a4.22,4.22,0,0,0-2.845-.956Zm24.709,0c-1.795,0-3.8.691-4.216,2.966a.32.32,0,0,0,.27.392l1.839.22c.17-.009.286-.194.318-.368a1.44,1.44,0,0,1,1.52-1.152,1.226,1.226,0,0,1,1.054.49,2.528,2.528,0,0,1,.22,1.4v.27a12.638,12.638,0,0,0-3.53.662,3.29,3.29,0,0,0-2.01,3.162,2.711,2.711,0,0,0,2.819,3.015,3.7,3.7,0,0,0,3.113-1.4,4.611,4.611,0,0,0,1.079,1.275.377.377,0,0,0,.441-.049v.024c.377-.344,1.061-.968,1.446-1.3a.376.376,0,0,0,0-.515,2.665,2.665,0,0,1-.711-1.789V22.446c0-1.277.082-2.454-.833-3.334a4.159,4.159,0,0,0-2.821-.956Zm-13.9.1a2.488,2.488,0,0,0-2.476,1.839h-.024v-1.3a.37.37,0,0,0-.344-.344H44.283a.373.373,0,0,0-.368.368v9.927a.381.381,0,0,0,.344.344h1.887a.372.372,0,0,0,.368-.368v-5.27c0-1.149-.056-2.721,1.3-2.721,1.337,0,1.152,1.615,1.152,2.721v5.27a.375.375,0,0,0,.344.368H51.2a.372.372,0,0,0,.368-.368v-5.27a6.041,6.041,0,0,1,.172-1.887,1.272,1.272,0,0,1,1.128-.833.983.983,0,0,1,1.1.858,13.118,13.118,0,0,1,.049,1.863v5.27a.375.375,0,0,0,.344.368h1.887a.372.372,0,0,0,.368-.368V22.447a5.4,5.4,0,0,0-.49-3.113,2.751,2.751,0,0,0-4.779.76,2.5,2.5,0,0,0-2.453-1.839Zm32.088,0c-2.727,0-4.241,2.4-4.241,5.491,0,3.072,1.5,5.539,4.241,5.539,2.64,0,4.314-2.411,4.314-5.442,0-3.132-1.517-5.588-4.314-5.588Zm10.761,0a2.581,2.581,0,0,0-2.574,2.01h-.024v-1.52a.364.364,0,0,0-.344-.27H87.058a.362.362,0,0,0-.368.318V28.72a.377.377,0,0,0,.344.368H88.9a.373.373,0,0,0,.368-.368V23.376a4.591,4.591,0,0,1,.318-1.887,1.209,1.209,0,0,1,1.079-.784c1.3,0,1.177,1.585,1.177,2.672v5.393a.372.372,0,0,0,.344.318h1.887a.373.373,0,0,0,.368-.318V22.518a6.452,6.452,0,0,0-.49-3.089,2.472,2.472,0,0,0-2.207-1.175Zm-22.65.172a.348.348,0,0,0-.344.368v1.421a.348.348,0,0,0,.344.368h3.236l-3.7,5.467a1.8,1.8,0,0,0-.245.981v1.446c0,.209.227.435.441.318a6.967,6.967,0,0,1,6.545-.024c.231.126.466-.111.466-.318v-1.52a.645.645,0,0,0-.344-.54,6.729,6.729,0,0,0-3.53-.784L75.17,20.9a1.993,1.993,0,0,0,.466-.882V18.794a.346.346,0,0,0-.344-.368ZM80.98,20.289a1.2,1.2,0,0,1,1.25.956,9.4,9.4,0,0,1,.27,2.623c0,1.274-.06,3.382-1.52,3.382-1.477,0-1.471-2.611-1.471-3.824S79.59,20.289,80.98,20.289ZM39.087,23.917v.417a3.9,3.9,0,0,1-.344,2.059,1.523,1.523,0,0,1-1.3.882c-.722,0-1.152-.585-1.152-1.421C36.293,24.2,37.725,23.917,39.087,23.917Zm24.709,0v.417a3.9,3.9,0,0,1-.344,2.059,1.52,1.52,0,0,1-1.3.882c-.722,0-1.152-.585-1.152-1.421C61,24.2,62.432,23.917,63.8,23.917Z" transform="translate(-8.47 -5.532)"/><path d="M76.108,32.5v1.421h.956V32.5Zm-27.724.245V42.868h.882v-.907a2.183,2.183,0,0,0,.662.809,1.512,1.512,0,0,0,.882.27,2.06,2.06,0,0,0,1.691-1,4.935,4.935,0,0,0,.736-2.893,5.837,5.837,0,0,0-.318-2.059,2.835,2.835,0,0,0-.858-1.275,1.934,1.934,0,0,0-1.2-.441,1.569,1.569,0,0,0-.858.245,2.26,2.26,0,0,0-.662.76V32.745h-.956Zm9.07,2.378a1.984,1.984,0,0,0-2.133,2.108,2.13,2.13,0,0,0,.22.956,1.737,1.737,0,0,0,.588.686,6.67,6.67,0,0,0,1.5.637,3.361,3.361,0,0,1,.956.417.8.8,0,0,1,.294.662,1.107,1.107,0,0,1-.344.833,1.311,1.311,0,0,1-.956.318,1.355,1.355,0,0,1-1-.368,1.874,1.874,0,0,1-.441-1.152l-.956.2c.216,1.573,1,2.354,2.353,2.353a2.217,2.217,0,0,0,1.691-.637,2.392,2.392,0,0,0,.637-1.716,2.284,2.284,0,0,0-.2-.981,1.547,1.547,0,0,0-.54-.637,7.73,7.73,0,0,0-1.545-.637,4.729,4.729,0,0,1-1.029-.441.77.77,0,0,1-.294-.637.865.865,0,0,1,.294-.686,1.4,1.4,0,0,1,.932-.27q1.1,0,1.225,1.2l.932-.147a3.008,3.008,0,0,0-.344-1.177,1.834,1.834,0,0,0-.736-.662,2.393,2.393,0,0,0-1.1-.22Zm5.859,0A2.29,2.29,0,0,0,61.4,36.1,4.759,4.759,0,0,0,60.665,39a4.6,4.6,0,0,0,.736,2.819,2.312,2.312,0,0,0,1.937.956,2.245,2.245,0,0,0,1.593-.588,3.235,3.235,0,0,0,.907-1.765l-.981-.172c-.282,1-.8,1.494-1.52,1.5a1.387,1.387,0,0,1-1.152-.613,3.3,3.3,0,0,1-.54-1.863h4.216v-.344a4.617,4.617,0,0,0-.736-2.819,2.178,2.178,0,0,0-1.812-.981Zm5.809,0a.875.875,0,0,0-.613.245A3.165,3.165,0,0,0,67.9,36.4V35.269h-.858V42.6H68V38.775a6.139,6.139,0,0,1,.172-1.52,1.257,1.257,0,0,1,.368-.637.824.824,0,0,1,.564-.22,1.139,1.139,0,0,1,.686.27l.318-1.152A1.572,1.572,0,0,0,69.122,35.123Zm11.717,0a2.239,2.239,0,0,0-1.863.956,4.728,4.728,0,0,0-.736,2.868,4.786,4.786,0,0,0,.736,2.868,2.152,2.152,0,0,0,1.814.956,2.083,2.083,0,0,0,1.569-.686,3.474,3.474,0,0,0,.809-2.01l-.932-.147a2.476,2.476,0,0,1-.49,1.373,1.19,1.19,0,0,1-.932.441,1.338,1.338,0,0,1-1.152-.662,4.011,4.011,0,0,1-.441-2.157,3.737,3.737,0,0,1,.466-2.108,1.412,1.412,0,0,1,1.177-.686,1.056,1.056,0,0,1,.809.368,2.265,2.265,0,0,1,.466,1.128l.932-.2a2.929,2.929,0,0,0-.76-1.741,2.014,2.014,0,0,0-1.47-.563Zm5.467,0a2.29,2.29,0,0,0-1.912.981A4.759,4.759,0,0,0,83.657,39a4.6,4.6,0,0,0,.736,2.819,2.313,2.313,0,0,0,1.937.956,2.249,2.249,0,0,0,1.593-.588,3.246,3.246,0,0,0,.907-1.765l-.981-.172c-.282,1-.778,1.494-1.5,1.5a1.429,1.429,0,0,1-1.177-.613,3.308,3.308,0,0,1-.54-1.863h4.216v-.344a4.617,4.617,0,0,0-.736-2.819,2.176,2.176,0,0,0-1.813-.981Zm5.663,0a1.984,1.984,0,0,0-2.133,2.108,2.123,2.123,0,0,0,.2.956,1.724,1.724,0,0,0,.588.686,6.653,6.653,0,0,0,1.5.637,3.66,3.66,0,0,1,.981.417.8.8,0,0,1,.294.662,1.107,1.107,0,0,1-.344.833,1.31,1.31,0,0,1-.956.318,1.353,1.353,0,0,1-1-.368,1.877,1.877,0,0,1-.466-1.152l-.956.2c.216,1.573,1,2.354,2.353,2.353a2.275,2.275,0,0,0,1.716-.637,2.389,2.389,0,0,0,.637-1.716,2.284,2.284,0,0,0-.2-.981,1.6,1.6,0,0,0-.564-.637,7.29,7.29,0,0,0-1.52-.637,5.228,5.228,0,0,1-1.054-.441.77.77,0,0,1-.294-.637.886.886,0,0,1,.318-.686,1.4,1.4,0,0,1,.932-.27q1.1,0,1.225,1.2l.932-.147a3.008,3.008,0,0,0-.344-1.177,1.834,1.834,0,0,0-.736-.662,2.385,2.385,0,0,0-1.1-.22ZM70.1,35.27l2.133,7.33h.907l2.133-7.33h-.981l-1.25,4.486c-.151.542-.285,1.01-.368,1.4-.1-.487-.2-1-.344-1.5L71.108,35.27Zm6.005,0V42.6h.956V35.27Zm-31.425.1a2.234,2.234,0,0,0-1.863,1,4.786,4.786,0,0,0-.76,2.893A4.547,4.547,0,0,0,42.8,42.06a2.339,2.339,0,0,0,1.937.981,2.21,2.21,0,0,0,1.569-.613,3.249,3.249,0,0,0,.882-1.765l-.956-.147c-.278,1-.784,1.494-1.5,1.5A1.388,1.388,0,0,1,43.58,41.4a3.327,3.327,0,0,1-.54-1.863h4.167l.024-.344a4.73,4.73,0,0,0-.736-2.843,2.184,2.184,0,0,0-1.813-.98Zm-10.761.172,1.716,7.33h1l1.128-5.638.2,1.25.907,4.388h.981L41.6,35.54h-.907l-.956,4.241L39.414,41.2l-.294-1.421-.833-4.241h-.981l-.882,4.29-.294,1.52-.344-1.569L34.9,35.54h-.981Zm61.012.074v.344h.932v2.451h.368V35.957h.932v-.344H94.934Zm2.6,0v2.794h.344V36.03l.809,2.378h.344l.809-2.329v2.329h.368V35.613h-.515l-.662,1.961c-.067.2-.115.338-.147.441l-.147-.417-.662-1.985Zm-34.245.515a1.381,1.381,0,0,1,1.177.686,2.916,2.916,0,0,1,.392,1.421H61.695a2.555,2.555,0,0,1,.515-1.52A1.349,1.349,0,0,1,63.288,36.128Zm22.993,0a1.382,1.382,0,0,1,1.177.686,2.916,2.916,0,0,1,.392,1.421H84.688a2.555,2.555,0,0,1,.515-1.52A1.351,1.351,0,0,1,86.281,36.128Zm-41.6.27a1.344,1.344,0,0,1,1.152.686,2.942,2.942,0,0,1,.392,1.421H43.114a2.637,2.637,0,0,1,.49-1.544A1.323,1.323,0,0,1,44.683,36.4Zm6.079,0a1.285,1.285,0,0,1,1.079.686,3.975,3.975,0,0,1,.417,2.108,3.952,3.952,0,0,1-.441,2.108,1.292,1.292,0,0,1-1.054.711,1.19,1.19,0,0,1-.784-.294,1.862,1.862,0,0,1-.54-.858,5.677,5.677,0,0,1-.2-1.716,3.716,3.716,0,0,1,.466-2.035A1.3,1.3,0,0,1,50.762,36.4Z" transform="translate(-8.551 -8.624)"/><path class="b" d="M13.209,22.064,9.557,23.633l3.382,1.446,3.922-1.446ZM7.718,24.025,7.6,31.085l5.343,2.353v-7.33L7.718,24.025Zm10.982,0-4.829,1.839v6.912L18.7,30.815v-6.79ZM24.461,2.062,20.783,3.631l3.407,1.446,3.922-1.446L24.461,2.062Zm-5.1,2.084v7.06l4.559,1.324.147-6.423Zm10.2.392L25.245,6.377v6.937l4.314-1.961ZM7.191,12,3.539,13.567l3.382,1.446,3.922-1.446ZM1.7,13.959l-.122,7.06,5.343,2.353v-7.33Zm10.982,0L7.853,15.8V22.71l4.829-1.961Zm6.275-2.221-3.652,1.569,3.382,1.446,3.922-1.446-3.652-1.569ZM13.466,13.7l-.122,7.06,5.343,2.353V15.783Zm10.982,0-4.829,1.839V22.45l4.829-1.961Zm11.5-11.637L32.3,3.631l3.382,1.446,3.922-1.446L35.953,2.062ZM30.462,4.023l-.122,7.06,5.343,2.353V6.107Zm10.982,0L36.615,5.862v6.912l4.829-1.961Z" transform="translate(-1.578 -2.062)"/></svg>