<svg xmlns="http://www.w3.org/2000/svg" width="55.699" height="50.404" viewBox="0 0 55.699 50.404"><defs><style>.a{fill:#fdb300;}.b{fill:#eb6c00;}.c{fill:#fdad00;}.d{fill:#fdd231;}.e{fill:#feeeb7;}</style></defs><g transform="translate(0 0)"><path class="a" d="M27.85,0l-15.7,1.66L0,17.973,27.85,50.4,55.7,17.973,43.547,1.66Z" transform="translate(0 0)"/><path class="b" d="M0,10.971,27.85,43.4,11.28,10.971Z" transform="translate(0 7.002)"/><path class="b" d="M33.569,10.971,17,43.4,44.85,10.971Z" transform="translate(10.85 7.002)"/><path class="c" d="M6.886,10.971,23.455,43.4,40.024,10.971Z" transform="translate(4.395 7.002)"/><path class="d" d="M7.758,1.66,6.886,17.973,23.455,0Z" transform="translate(4.395 0)"/><path class="d" d="M33.569,17.973,32.7,1.66,17,0Z" transform="translate(10.85 0)"/><path class="c" d="M27.454,17.327h11.28L26.582,1.013Z" transform="translate(16.965 0.646)"/><path class="c" d="M0,17.327H11.28l.872-16.314Z" transform="translate(0 0.646)"/><path class="e" d="M23.455,0,6.886,17.973H40.024Z" transform="translate(4.395 0)"/></g></svg>