<svg xmlns="http://www.w3.org/2000/svg" width="50.404" height="50.404" viewBox="0 0 50.404 50.404"><defs><style>.a{fill:#fdad00;}.b{fill:#272727;}.c{fill:#74bb11;}.d{fill:#009cd9;}.e{fill:#eb2084;}</style></defs><path class="a" d="M45.835,0H4.569A4.569,4.569,0,0,0,0,4.569V45.835A4.569,4.569,0,0,0,4.569,50.4H45.835A4.569,4.569,0,0,0,50.4,45.835V4.569A4.569,4.569,0,0,0,45.835,0" transform="translate(0)"/><g transform="translate(1.81 19.607)"><g transform="translate(0 0)"><path class="b" d="M23.217.141h-.664a.552.552,0,0,0-.577.577v8.75H19.215c-1.708,0-2.4-.108-2.4-2.836V.717a.551.551,0,0,0-.577-.576h-.645a.573.573,0,0,0-.6.576V6.632c0,3.875,1.4,4.557,4.351,4.557a28.331,28.331,0,0,0,3.9-.2l.032-.006a.58.58,0,0,0,.516-.583V.718a.552.552,0,0,0-.577-.577m7.97.021L31.142.15a14.315,14.315,0,0,0-1.98-.142c-1.866,0-2.853.783-2.853,2.264v8.247a.552.552,0,0,0,.577.577h.664a.552.552,0,0,0,.577-.577V2.423c0-.365.092-.694,1.206-.694l1.649,0a.559.559,0,0,0,.434-.126.576.576,0,0,0,.2-.449V.736a.584.584,0,0,0-.429-.575" transform="translate(5.819 -0.002)"/><g transform="translate(38.122 0.006)"><g transform="translate(0)"><path class="b" d="M4.391,0C2.48,0,1.4.373.78,1.24.133,2.145,0,3.574,0,5.586c0,3.949.61,5.6,4.389,5.6.454,0,2.005-.009,2.912-.12a.577.577,0,0,0,.51-.571V10.06a.583.583,0,0,0-.6-.6H4.392c-2.132,0-2.516-.5-2.572-3.367V5.171c.018-2.93.4-3.445,2.572-3.445,2,0,2.383.457,2.45,3.036H3.663V6.5H7.843c.823,0,.823-.576.823-.765V5.181C8.607,1.165,7.647,0,4.391,0" transform="translate(-0.003 -0.004)"/></g></g><path class="c" d="M14.4.38A.52.52,0,0,0,13.91.09h-.854a.564.564,0,0,0-.53.28L11.261,2.222l1.108,1.517L14.3.961A.531.531,0,0,0,14.4.38" transform="translate(4.37 0.03)"/><path class="d" d="M9.379.349v0A.628.628,0,0,0,8.845.09H8.01a.523.523,0,0,0-.481.27.556.556,0,0,0,.056.582l3.092,4.295L7.122,10.2a.543.543,0,0,0-.048.57.523.523,0,0,0,.481.27h.853a.57.57,0,0,0,.508-.294L12.9,5.256Z" transform="translate(2.722 0.03)"/><path class="e" d="M14.7,8.312l-2.154-2.96L11.6,6.66l1.7,2.276.044.02A.538.538,0,0,0,13.562,9h.724a.465.465,0,0,0,.408-.214.482.482,0,0,0,.007-.477" transform="translate(4.501 2.072)"/><g transform="translate(0 0)"><path class="b" d="M6.562,6.427v2.9a20.842,20.842,0,0,1-2.572.159c-1.941,0-2.154-.532-2.154-1.66,0-1.056.394-1.4,1.623-1.4ZM3.9,0A19.724,19.724,0,0,0,1.46.142l-.046.01a.556.556,0,0,0-.447.58v.417a.535.535,0,0,0,.577.577H3.9c1.894,0,2.666.514,2.666,1.774V4.725h-3.1C1.035,4.725,0,5.651,0,7.823c0,2.42,1.071,3.364,3.819,3.364a19.868,19.868,0,0,0,3.921-.318.782.782,0,0,0,.639-.828V3.386C8.38,1.11,6.913,0,3.9,0Z" transform="translate(0 -0.003)"/></g></g></g></svg>