<svg xmlns="http://www.w3.org/2000/svg" width="155.244" height="44.602" viewBox="0 0 155.244 44.602"><defs><style>.a{fill:#1f1f1f;}</style></defs><path class="a" d="M1982.557,1040.143h-44.049l-.012-.1,26.691-4.722c-.835-1.006-1.585-1.916-2.343-2.819q-5.555-6.623-11.125-13.234a1.242,1.242,0,0,1-.211-1.452c2.224-6.047,4.406-12.11,6.6-18.168.116-.321.245-.637.432-1.121Z" transform="translate(-1924.81 -995.541)"/><path class="a" d="M1855.17,1019.992c1.24-2.159,2.433-4.241,3.631-6.32,3.557-6.176,7.08-12.373,10.713-18.5a10.88,10.88,0,0,1,2.495-2.436q7.258-6.138,14.553-12.232a1.922,1.922,0,0,1,.36-.148c-.479,1.048-.9,1.982-1.329,2.91q-6.744,14.487-13.492,28.973c-1.119,2.4-2.224,4.814-3.375,7.2a1.163,1.163,0,0,1-.792.613c-4.16.037-8.32.023-12.479.019A1.759,1.759,0,0,1,1855.17,1019.992Z" transform="translate(-1855.17 -980.352)"/><path class="a" d="M2239.053,1089.932c.9-2.36,1.7-4.475,2.5-6.588,2.387-6.273,4.785-12.542,7.145-18.826a.941.941,0,0,1,1.067-.716c2.4.01,2.419-.014,3.234,2.1q4.481,11.613,8.938,23.236c.078.2.136.412.262.8-1.028,0-1.977.035-2.92-.025a.958.958,0,0,1-.649-.534q-1.173-2.969-2.263-5.972a1,1,0,0,0-1.094-.806q-4.718.059-9.437,0a.927.927,0,0,0-1.035.773c-.678,1.988-1.415,3.955-2.09,5.944-.159.468-.366.655-.868.631C2240.976,1089.9,2240.107,1089.932,2239.053,1089.932Zm11.515-22.405-4.408,12.18h8.827Z" transform="translate(-2176 -1050.095)"/><path class="a" d="M2717.254,1116.5h-13.132a5.707,5.707,0,0,0,5.1,6.343,9.138,9.138,0,0,0,6.134-1.625c.127-.09.264-.164.522-.323,0,.924.015,1.731-.013,2.538a.663.663,0,0,1-.283.443c-2.856,1.887-8.391,2.459-11.453-.082a8.263,8.263,0,0,1-2.826-4.684,12.517,12.517,0,0,1,.954-8.779,8.194,8.194,0,0,1,11.315-3.4,7.21,7.21,0,0,1,3.4,5.359C2717.189,1113.625,2717.162,1115,2717.254,1116.5Zm-3.25-2.6c.274-2.913-1.683-5.322-4.262-5.346-2.988-.027-5.74,2.624-5.528,5.346Z" transform="translate(-2562.01 -1085.241)"/><path class="a" d="M2515.677,1127.972h-3v-2.7a23.424,23.424,0,0,1-1.7,1.767,6.484,6.484,0,0,1-10.474-3.634,16.335,16.335,0,0,1-.3-3.01c-.035-3.5-.014-7-.012-10.506,0-.159.03-.318.05-.52h2.992c0,.305,0,.6,0,.885.008,3.5.008,7,.029,10.505a6.112,6.112,0,0,0,1,3.495c1.56,2.272,5.437,2.125,7.159-.264a6,6,0,0,0,1.177-3.6c-.008-3.31,0-6.621,0-9.932v-.961h3.068Z" transform="translate(-2394.248 -1088.178)"/><path class="a" d="M2400.73,1109.4a6.368,6.368,0,0,1-.531,1.311q-4.964,6.921-9.966,13.815c-.174.24-.326.5-.565.86h10.684v2.583h-15.375a7.118,7.118,0,0,1,.615-1.559c3.314-4.609,6.66-9.194,10-13.786.124-.171.234-.351.435-.655h-9.8V1109.4Z" transform="translate(-2297.957 -1088.207)"/><path class="a" d="M2634,1110.795c.559-.844.961-1.557,1.465-2.189a4.682,4.682,0,0,1,4.638-1.623c.414.057.7.212.669.732-.041.816-.011,1.635-.011,2.41a18.51,18.51,0,0,0-2.361-.339,3.357,3.357,0,0,0-2.959,1.619,8.529,8.529,0,0,0-1.392,4.81c-.009,2.927,0,5.853,0,8.78v.89h-2.976v-18.561H2634Z" transform="translate(-2503.632 -1086.124)"/></svg>