<svg xmlns="http://www.w3.org/2000/svg" width="33.603" height="50.404" viewBox="0 0 33.603 50.404"><defs><style>.a{fill:#0acf83;}.b{fill:#a259ff;}.c{fill:#f24e1e;}.d{fill:#ff7262;}.e{fill:#1abcfe;}</style></defs><path class="a" d="M8.4,216.8a8.4,8.4,0,0,0,8.4-8.4V200H8.4a8.4,8.4,0,0,0,0,16.8Z" transform="translate(0 -166.397)"/><path class="b" d="M0,108.4A8.4,8.4,0,0,1,8.4,100h8.4v16.8H8.4A8.4,8.4,0,0,1,0,108.4Z" transform="translate(0 -83.199)"/><path class="c" d="M0,8.4A8.4,8.4,0,0,1,8.4,0h8.4V16.8H8.4A8.4,8.4,0,0,1,0,8.4Z"/><path class="d" d="M100,0h8.4a8.4,8.4,0,0,1,0,16.8H100Z" transform="translate(-83.199)"/><path class="e" d="M116.8,108.4a8.4,8.4,0,1,1-8.4-8.4A8.4,8.4,0,0,1,116.8,108.4Z" transform="translate(-83.199 -83.199)"/></svg>