<svg xmlns="http://www.w3.org/2000/svg" width="89.428" height="39.783" viewBox="0 0 89.428 39.783"><defs><style>.a{fill:#646364;}.b{fill:none;}.c{fill:#276ab3;}.d{fill:#e71c1f;}.e{fill:#009e3a;}.f{fill:orange;}</style></defs><g transform="translate(-14.484 -22.074)"><g transform="translate(33.462 40.637)"><path class="a" d="M34.6,49.245v6.469H32.546V39.741h5.443a4.92,4.92,0,0,1,3.525,1.383,4.617,4.617,0,0,1,0,6.76,4.915,4.915,0,0,1-3.525,1.361Zm0-7.541v5.577h3.436a2.712,2.712,0,0,0,2.03-.825,2.8,2.8,0,0,0-2.03-4.752Z" transform="translate(-32.546 -39.741)"/><path class="a" d="M47.935,44.2a5.093,5.093,0,0,1,3.592,1.216,4.315,4.315,0,0,1,1.316,3.335v6.737H50.881V53.971h-.089A3.917,3.917,0,0,1,47.4,55.845a4.4,4.4,0,0,1-3.023-1.072A3.416,3.416,0,0,1,43.162,52.1a3.249,3.249,0,0,1,1.283-2.7,5.405,5.405,0,0,1,3.424-1,6.067,6.067,0,0,1,3.011.669v-.469a2.335,2.335,0,0,0-.848-1.818,2.908,2.908,0,0,0-1.985-.747,3.145,3.145,0,0,0-2.722,1.45l-1.806-1.138A5.036,5.036,0,0,1,47.935,44.2Zm-2.654,7.941a1.638,1.638,0,0,0,.68,1.339,2.5,2.5,0,0,0,1.6.536,3.274,3.274,0,0,0,2.308-.959A3.006,3.006,0,0,0,50.881,50.8a4.219,4.219,0,0,0-2.677-.759,3.478,3.478,0,0,0-2.086.6A1.787,1.787,0,0,0,45.281,52.141Z" transform="translate(-32.008 -39.515)"/><path class="a" d="M54.584,44.7h1.964v1.785h.089q.914-2.1,3.77-2.1l.423.045v2.141l-.914-.089a3.276,3.276,0,0,0-2.354.882,2.957,2.957,0,0,0-.926,2.241v6.024H54.584Zm12.805,11.11a3.117,3.117,0,0,1-2.219-.826,3.056,3.056,0,0,1-.9-2.3V46.575H62.348V44.7h1.919V41.355h2.052V44.7H69v1.874H66.318v5.443a1.99,1.99,0,0,0,.424,1.484,1.375,1.375,0,0,0,.958.391,2.091,2.091,0,0,0,.48-.056,2.608,2.608,0,0,0,.435-.145l.647,1.829A5.541,5.541,0,0,1,67.389,55.811Z" transform="translate(-31.428 -39.659)"/><path class="a" d="M70.274,44.556h1.963v1.517h.089a3.654,3.654,0,0,1,1.439-1.339,4.129,4.129,0,0,1,2.018-.535,4.041,4.041,0,0,1,3.09,1.148,4.589,4.589,0,0,1,1.082,3.269v6.871H77.9V48.751a2.412,2.412,0,0,0-2.7-2.677,2.564,2.564,0,0,0-2.052.993,3.6,3.6,0,0,0-.826,2.376v6.046H70.274Z" transform="translate(-30.632 -39.515)"/><path class="a" d="M86.719,55.845a5.228,5.228,0,0,1-3.971-1.652,5.826,5.826,0,0,1-1.561-4.171A5.938,5.938,0,0,1,82.7,45.861a5.455,5.455,0,0,1,7.752-.088,6.285,6.285,0,0,1,1.438,4.406l-.022.223H83.284a3.562,3.562,0,0,0,1.071,2.588,3.458,3.458,0,0,0,5.532-.981l1.829.892a5.443,5.443,0,0,1-2.04,2.163A5.644,5.644,0,0,1,86.719,55.845Zm-3.279-7.14h6.269a2.721,2.721,0,0,0-.926-1.885,3.242,3.242,0,0,0-2.242-.747,2.975,2.975,0,0,0-2,.714A3.414,3.414,0,0,0,83.44,48.705Z" transform="translate(-30.079 -39.515)"/><path class="a" d="M95.214,55.486H93.161V44.554h1.964v1.785h.089A2.967,2.967,0,0,1,96.5,44.856a3.564,3.564,0,0,1,1.908-.614,3.847,3.847,0,0,1,1.517.268L99.3,46.5a3.4,3.4,0,0,0-1.2-.157,2.655,2.655,0,0,0-2.019.937,3.132,3.132,0,0,0-.858,2.185Z" transform="translate(-29.472 -39.513)"/></g><path class="b" d="M45.207,31.13a1.734,1.734,0,0,0-1.319.573,1.943,1.943,0,0,0-.535,1.417,2,2,0,0,0,.535,1.418,1.791,1.791,0,0,0,2.626,0,2,2,0,0,0,.546-1.418,1.939,1.939,0,0,0-.535-1.417A1.733,1.733,0,0,0,45.207,31.13Z" transform="translate(1.464 0.459)"/><path class="b" d="M58.87,31.13a1.718,1.718,0,0,0-1.293.584,2.151,2.151,0,0,0-.013,2.824,1.717,1.717,0,0,0,1.306.573,1.619,1.619,0,0,0,1.244-.56,2.241,2.241,0,0,0,0-2.849A1.58,1.58,0,0,0,58.87,31.13Z" transform="translate(2.159 0.459)"/><path class="b" d="M52.051,31.13a1.734,1.734,0,0,0-1.319.573A1.943,1.943,0,0,0,50.2,33.12a2,2,0,0,0,.535,1.418,1.79,1.79,0,0,0,2.625,0A2,2,0,0,0,53.9,33.12,1.939,1.939,0,0,0,53.37,31.7,1.734,1.734,0,0,0,52.051,31.13Z" transform="translate(1.811 0.459)"/><path class="b" d="M68.482,31.3a1.491,1.491,0,0,0-.76-.193,1.689,1.689,0,0,0-1.219.547,1.8,1.8,0,0,0-.5,1.369l2.937-1.22A1.015,1.015,0,0,0,68.482,31.3Z" transform="translate(2.613 0.458)"/><path class="c" d="M37.222,31.082v1.393h3.334a2.946,2.946,0,0,1-1.095,2.052,3.739,3.739,0,0,1-4.84-.36,3.789,3.789,0,0,1,0-5.25,3.5,3.5,0,0,1,2.6-1.082,3.574,3.574,0,0,1,2.513,1l.982-.982a4.908,4.908,0,0,0-3.5-1.406,5.133,5.133,0,0,0-2.588.7,5.044,5.044,0,0,0-1.9,1.879,5.031,5.031,0,0,0,1.9,6.93,5.123,5.123,0,0,0,2.588.7,4.759,4.759,0,0,0,3.421-1.294,4.991,4.991,0,0,0,1.269-4.267Z" transform="translate(0.891 0.221)"/><path class="d" d="M45.277,29.9a3.2,3.2,0,0,0-2.352.945,3.384,3.384,0,1,0,2.352-.945Zm1.307,4.7a1.791,1.791,0,0,1-2.626,0,2,2,0,0,1-.535-1.418,1.943,1.943,0,0,1,.535-1.417,1.8,1.8,0,0,1,2.637,0,1.939,1.939,0,0,1,.535,1.417A2,2,0,0,1,46.584,34.6Z" transform="translate(1.395 0.397)"/><rect class="e" width="1.443" height="9.655" transform="translate(65.048 27.011)"/><path class="f" d="M52.121,29.9a3.2,3.2,0,0,0-2.352.945,3.384,3.384,0,1,0,2.352-.945Zm1.306,4.7a1.79,1.79,0,0,1-2.625,0,2,2,0,0,1-.535-1.418,1.943,1.943,0,0,1,.535-1.417,1.8,1.8,0,0,1,2.637,0,1.939,1.939,0,0,1,.535,1.417A2,2,0,0,1,53.427,34.6Z" transform="translate(1.742 0.397)"/><path class="d" d="M67.9,35.174a1.681,1.681,0,0,1-1.593-1L70.7,32.362l-.149-.373a3.631,3.631,0,0,0-.454-.846,3.274,3.274,0,0,0-.641-.666,2.716,2.716,0,0,0-.8-.429,2.808,2.808,0,0,0-.92-.149,2.949,2.949,0,0,0-2.215.933,3.314,3.314,0,0,0-.883,2.35,3.2,3.2,0,0,0,.933,2.34,3.315,3.315,0,0,0,5.063-.511l-1.12-.746A1.866,1.866,0,0,1,67.9,35.174Zm-1.331-3.459a1.689,1.689,0,0,1,1.219-.547,1.491,1.491,0,0,1,.76.193,1.015,1.015,0,0,1,.46.5l-2.937,1.22A1.8,1.8,0,0,1,66.572,31.715Z" transform="translate(2.544 0.397)"/><path class="c" d="M60.595,30.632h-.049a2.143,2.143,0,0,0-1.729-.733,3,3,0,0,0-2.215.97,3.352,3.352,0,0,0,0,4.641,3.042,3.042,0,0,0,2.215.958,2.127,2.127,0,0,0,1.729-.747h.049v.336q0,2.065-1.754,2.065a1.623,1.623,0,0,1-1-.324,2.02,2.02,0,0,1-.659-.846l-1.257.523a3.325,3.325,0,0,0,.473.789,2.99,2.99,0,0,0,.665.61,3.293,3.293,0,0,0,.828.4,3.112,3.112,0,0,0,.946.143,2.982,2.982,0,0,0,2.295-.89A3.58,3.58,0,0,0,61.964,36V30.1H60.595Zm-.411,3.981a1.619,1.619,0,0,1-1.244.56,1.717,1.717,0,0,1-1.306-.573,2.151,2.151,0,0,1,.013-2.824,1.718,1.718,0,0,1,1.293-.584,1.58,1.58,0,0,1,1.244.573,2.241,2.241,0,0,1,0,2.849Z" transform="translate(2.089 0.397)"/><rect class="c" width="10.469" height="39.783" transform="translate(14.484 22.074)"/></g></svg>