<svg xmlns="http://www.w3.org/2000/svg" width="48.521" height="24.133" viewBox="0 0 48.521 24.133"><defs><style>.a{fill:#fbbc05;}.b{fill:#ea4335;}.c{fill:#4285f4;}.d{fill:#34a853;}.e{fill:#475059;}</style></defs><g transform="translate(-2498.233 1334.12)"><path class="a" d="M2603.339-1309.583q0-3.5,0-7.005c0-.245-.032-.226.219-.226h10.417c.257,0,.226-.02.227.219q0,1.113,0,2.227c0,.036,0,.073,0,.109,0,.068-.024.1-.095.1-.048,0-.1,0-.145,0h-7.681c-.255,0-.224-.029-.225.219q0,1.448,0,2.9c0,.036,0,.073,0,.109-.005.074.02.115.1.108.048,0,.1,0,.145,0h7.392c.25,0,.217-.025.218.225q0,1.05,0,2.1c0,.036,0,.073,0,.109.006.075-.02.115-.1.109-.048,0-.1,0-.145,0h-7.374c-.272,0-.236-.032-.236.244q0,1.385,0,2.769c0,.018,0,.036,0,.054,0,.2-.021.194.2.194h6.776c.338,0,.676,0,1.014,0,.155,0,.158,0,.158.145q0,1.213,0,2.425c0,.129,0,.129-.129.133h-10.508c-.252,0-.226.031-.226-.218Q2603.339-1306.063,2603.339-1309.583Z" transform="translate(-90.647 -14.924)"/><path class="b" d="M2704.024-1304.509a2.856,2.856,0,0,1-.313-.3q-.649-.644-1.295-1.292c-.133-.133-.133-.132-.28-.018a7.553,7.553,0,0,1-3.723,1.571,7.733,7.733,0,0,1-7.955-4.163,7.356,7.356,0,0,1-.786-2.618,7.7,7.7,0,0,1,3.879-7.641,7.532,7.532,0,0,1,3.048-.962,7.736,7.736,0,0,1,1.392-.015,7.734,7.734,0,0,1,3.336,1.048,7.923,7.923,0,0,1,.749.508c.063.048.083.085.038.162-.4.677-.788,1.356-1.181,2.034a.292.292,0,0,1-.033.04c-.069-.015-.1-.068-.15-.1a5.21,5.21,0,0,0-2.887-1.175,5.2,5.2,0,0,0-5.519,4,5.205,5.205,0,0,0,3.923,6.258,5.2,5.2,0,0,0,5.972-3.092,5.143,5.143,0,0,0,.272-3.07.479.479,0,0,1,.06-.372c.454-.769.9-1.543,1.346-2.315.03-.052.062-.1.1-.159a.485.485,0,0,1,.127.179,7.206,7.206,0,0,1,.949,3.066,7.745,7.745,0,0,1-.865,4.338,8.038,8.038,0,0,1-.665,1.034c-.111.148-.111.15.022.284l1.4,1.4c.046.047.089.1.133.146a2.946,2.946,0,0,1-.445.56c-.156.19-.323.372-.482.56A.233.233,0,0,1,2704.024-1304.509Z" transform="translate(-165.061 -12.202)"/><path class="c" d="M2504.525-1305.066a9.469,9.469,0,0,1-2.838-.368,5.283,5.283,0,0,1-2.4-1.459,5.511,5.511,0,0,1-1.024-1.611c-.05-.118-.048-.122.062-.179q1.02-.529,2.042-1.056c.123-.063.128-.062.177.047a3.488,3.488,0,0,0,2.108,1.866,5.708,5.708,0,0,0,2.351.3,4.9,4.9,0,0,0,1.584-.338,2.256,2.256,0,0,0,.987-.739,1.77,1.77,0,0,0,.034-2.019,2.046,2.046,0,0,0-.722-.592,5.054,5.054,0,0,0-1.566-.486c-.6-.095-1.207-.162-1.808-.259a9.073,9.073,0,0,1-2.411-.687,3.888,3.888,0,0,1-1.639-1.328,3.606,3.606,0,0,1-.578-1.656,4.31,4.31,0,0,1,.092-1.562,3.588,3.588,0,0,1,1.367-2.01,5.878,5.878,0,0,1,2.265-1.007,8.416,8.416,0,0,1,2.264-.211,7.953,7.953,0,0,1,2.839.576,4.7,4.7,0,0,1,2.358,2.1c.017.032.031.066.051.1.051.074.026.115-.05.153-.307.154-.612.314-.918.471-.349.179-.7.357-1.047.537-.062.032-.112.06-.168-.021a3.474,3.474,0,0,0-1.688-1.224,4.9,4.9,0,0,0-2.259-.287,4.08,4.08,0,0,0-1.3.308,1.853,1.853,0,0,0-1.008.942,1.394,1.394,0,0,0,.216,1.537,2.076,2.076,0,0,0,.7.449,5.958,5.958,0,0,0,1.342.36c.666.114,1.34.169,2,.29a8.9,8.9,0,0,1,2.581.8,3.67,3.67,0,0,1,1.769,1.841,4.622,4.622,0,0,1,.329,1.874,4.1,4.1,0,0,1-.79,2.472,4.568,4.568,0,0,1-1.912,1.448,7.671,7.671,0,0,1-2.111.549A9.751,9.751,0,0,1,2504.525-1305.066Z" transform="translate(0 -11.811)"/><path class="d" d="M2727.691-1332.66l3.093-1.46c-.024.588-.088,1.147-.129,1.708s-.094,1.129-.142,1.694c-.049.032-.079-.01-.111-.031-.2-.136-.4-.275-.6-.411-.112-.077-.114-.076-.184.044l-1.044,1.8-3.491,6.028c-.015.026-.032.051-.045.079-.037.079-.086.081-.159.042-.213-.113-.43-.218-.646-.326l-2.6-1.306-.016-.008c-.166-.081-.137-.073-.227.054q-.543.769-1.084,1.539l-1.511,2.146c-.021.03-.043.059-.062.089-.036.056-.073.05-.115.005-.087-.093-.17-.189-.264-.273a.156.156,0,0,1-.035-.219c.306-.622.605-1.247.908-1.871l1.578-3.255.031-.065c.07-.139.071-.14.212-.069l3.171,1.588c.211.105.175.124.3-.084q1.932-3.335,3.864-6.669c.115-.2.141-.158-.066-.3l-.594-.414C2727.71-1332.615,2727.707-1332.629,2727.691-1332.66Z" transform="translate(-189.784)"/><path class="e" d="M2793.391-1215.7q.448-.518.9-1.036a1.047,1.047,0,0,1,.188-.193c.07.037.1.134.18.144s.119-.072.182-.105a.831.831,0,0,1,.92.073,1.713,1.713,0,0,1,.229.2l4.635,4.637q.237.237.48.468a.23.23,0,0,1,.077.173c.011.358.01.355-.246.61q-.822.817-1.638,1.639a.3.3,0,0,1-.469,0q-2.633-2.63-5.267-5.259a.921.921,0,0,1-.31-.595.749.749,0,0,1,.154-.527A.156.156,0,0,0,2793.391-1215.7Z" transform="translate(-254.428 -101.007)"/></g></svg>