<svg xmlns="http://www.w3.org/2000/svg" width="113.418" height="43.343" viewBox="0 0 113.418 43.343"><defs><style>.a{fill:#95bf47;}.b{fill:#5e8e3e;}.c{fill:#fff;}.d,.e{fill:#231f20;}.e{font-size:21px;font-family:SegoeUI-LightItalic, Segoe UI;font-weight:300;font-style:italic;}</style></defs><path class="a" d="M330.041,278.846a.424.424,0,0,0-.377-.353l-3.444-.251-2.534-2.526a1.027,1.027,0,0,0-.926-.118l-1.279.4c-.784-2.2-2.118-4.22-4.487-4.22h-.2a2.879,2.879,0,0,0-2.236-1.279c-5.491,0-8.158,6.9-8.982,10.409l-3.859,1.208c-1.192.377-1.232.416-1.388,1.569-.118.855-3.255,25.1-3.255,25.1L321.5,313.36l13.225-2.863s-4.659-31.439-4.683-31.651Zm-9.923-2.463-2.063.635v-.439a10.118,10.118,0,0,0-.494-3.342C318.785,273.426,319.6,274.814,320.118,276.383Zm-4.071-2.871a10.087,10.087,0,0,1,.565,3.718v.243l-4.267,1.318c.816-3.138,2.361-4.675,3.7-5.248Zm-1.639-1.569a1.231,1.231,0,0,1,.706.235c-1.765.831-3.663,2.934-4.463,7.122l-3.373,1.043c.941-3.177,3.169-8.354,7.13-8.354Z" transform="translate(-297.08 -270.5)"/><path class="b" d="M336.374,279.884l-3.444-.251-2.534-2.526a.635.635,0,0,0-.353-.157L328.2,314.711l13.225-2.863s-4.644-31.376-4.667-31.612a.424.424,0,0,0-.384-.353Z" transform="translate(-303.789 -271.891)"/><path class="c" d="M318.571,289.823l-1.632,4.855a7.5,7.5,0,0,0-3.177-.784c-2.573,0-2.7,1.569-2.7,2.016,0,2.22,5.773,3.067,5.773,8.26,0,4.079-2.589,6.715-6.079,6.715a8.479,8.479,0,0,1-6.338-2.612l1.122-3.71s2.2,1.89,4.063,1.89a1.639,1.639,0,0,0,1.71-1.655c0-2.887-4.706-3.02-4.706-7.766,0-4,2.871-7.844,8.628-7.844A7.138,7.138,0,0,1,318.571,289.823Z" transform="translate(-298.662 -274.527)"/><path class="d" d="M365.328,282.988c-.784-.416-1.161-.784-1.161-1.255,0-.62.549-1.02,1.4-1.02a5,5,0,0,1,1.9.424l.706-2.165a4.5,4.5,0,0,0-2.557-.5c-2.659,0-4.495,1.522-4.495,3.655a3.374,3.374,0,0,0,2,2.8c.933.533,1.263.9,1.263,1.459s-.463,1.035-1.326,1.035a5.891,5.891,0,0,1-2.487-.667l-.784,2.165a5.742,5.742,0,0,0,3,.745c2.738,0,4.706-1.341,4.706-3.765.024-1.3-.973-2.228-2.165-2.91Z" transform="translate(-310.6 -272.218)"/><path class="d" d="M378.515,277.2a4.134,4.134,0,0,0-3.224,1.608h-.039l1.169-6.1h-3.044l-2.957,15.539h3.044l1.012-5.31c.4-2.008,1.435-3.24,2.408-3.24.682,0,.949.463.949,1.122a7.055,7.055,0,0,1-.133,1.341l-1.145,6.087h3.036l1.192-6.275a11.186,11.186,0,0,0,.22-1.985C381,278.24,380.1,277.2,378.515,277.2Z" transform="translate(-312.891 -270.976)"/><path class="d" d="M391,278.44c-3.663,0-6.087,3.31-6.087,6.989a3.977,3.977,0,0,0,4.189,4.251c3.593,0,6.016-3.216,6.016-6.989A3.944,3.944,0,0,0,391,278.44Zm-1.5,8.9c-1.035,0-1.475-.879-1.475-1.985,0-1.741.9-4.581,2.557-4.581,1.075,0,1.428.926,1.428,1.828C392.04,284.48,391.114,287.343,389.506,287.343Z" transform="translate(-316.015 -272.212)"/><path class="d" d="M405.511,278.44a4.173,4.173,0,0,0-3.216,1.8h-.047l.18-1.624h-2.69c-.133,1.1-.377,2.777-.62,4.032L397,293.783h3.036l.839-4.495h.047a3.546,3.546,0,0,0,1.781.392c3.577,0,5.907-3.655,5.907-7.358.031-2.055-.871-3.883-3.1-3.883Zm-2.91,8.95a1.945,1.945,0,0,1-1.255-.439l.51-2.847c.353-1.89,1.341-3.138,2.4-3.138.926,0,1.216.863,1.216,1.679,0,1.945-1.169,4.746-2.871,4.746Z" transform="translate(-318.622 -272.212)"/><path class="d" d="M416.9,272.88a1.734,1.734,0,0,0-1.741,1.757,1.4,1.4,0,0,0,1.435,1.522h.008a1.718,1.718,0,0,0,1.788-1.757,1.443,1.443,0,0,0-1.49-1.522Z" transform="translate(-322.535 -271.013)"/><path class="d" d="M125.04,27.148h3.044l2.071-10.778h-3.067L125.04,27.148Z" transform="translate(-34.927 -9.899)"/><path class="d" d="M426.367,277.362h-2.118l.11-.5c.18-1.043.784-1.969,1.812-1.969a3.074,3.074,0,0,1,.965.157l.6-2.353a3.969,3.969,0,0,0-1.655-.267,4.51,4.51,0,0,0-2.973,1.012,5.813,5.813,0,0,0-1.765,3.444l-.086.5h-1.428l-.439,2.29H420.8l-1.608,8.511h3.036l1.616-8.511h2.087Z" transform="translate(-323.406 -270.915)"/><path class="d" d="M435.365,278.75s-1.906,4.793-2.753,7.4h-.047c-.063-.839-.784-7.4-.784-7.4h-3.193l1.828,9.9a.627.627,0,0,1-.063.5,5.248,5.248,0,0,1-1.655,1.836,6.6,6.6,0,0,1-1.718.855l.839,2.581a7.059,7.059,0,0,0,2.973-1.655,20.567,20.567,0,0,0,3.993-6.04l3.718-7.977Z" transform="translate(-325.085 -272.279)"/><text class="e" transform="translate(46.304 38.343)"><tspan x="0" y="0">partner</tspan></text></svg>