<svg xmlns="http://www.w3.org/2000/svg" width="51.696" height="50.404" viewBox="0 0 51.696 50.404"><defs><style>.a{fill:#2e001e;}.b{fill:#ff2bc2;}</style></defs><path class="a" d="M10,10H57.388V56.1H10Z" transform="translate(-7.846 -7.846)"/><path class="b" d="M0,0V50.4H51.7V0ZM2.154,2.154H49.542v46.1H2.154Z"/><path class="b" d="M73.013,64.719a2.958,2.958,0,0,0-1.249-.215c-2.714,0-4.523,2.089-4.523,5.557,0,3.963,1.852,5.557,4.265,5.557a4.064,4.064,0,0,0,1.486-.237V64.719Zm-9.65,5.514c0-5.019,3.231-8.939,8.53-8.939a9.553,9.553,0,0,1,1.12.043v-5.6a.216.216,0,0,1,.215-.215H76.7c.172,0,.215.065.215.172V75.382a15.343,15.343,0,0,0,.108,2.111c0,.151,0,.172-.129.237a12.831,12.831,0,0,1-5.514,1.249C66.7,78.979,63.363,76.092,63.363,70.234Zm-7.345-3.49,6.031,11.7c.108.172.043.345-.129.345H58.172a.423.423,0,0,1-.452-.28Q55.652,74.24,53.5,69.652h-.043c-1.292,2.886-2.714,6.031-4.093,8.875a.414.414,0,0,1-.388.237H45.4c-.215,0-.237-.172-.129-.3l5.9-11.352L45.463,55.823a.191.191,0,0,1,.151-.323h3.7c.215,0,.323.043.388.237,1.357,2.865,2.736,5.687,4.028,8.573h.043c1.249-2.843,2.628-5.708,3.942-8.53.108-.172.172-.28.388-.28h3.468c.172,0,.237.129.129.323Z" transform="translate(-35.469 -43.545)"/></svg>