<svg xmlns="http://www.w3.org/2000/svg" xmlns:xlink="http://www.w3.org/1999/xlink" width="124.167" height="42.853" viewBox="0 0 124.167 42.853"><defs><style>.a,.b,.c,.e{fill-rule:evenodd;}.a{fill:url(#a);}.b{fill:url(#b);}.c{fill:url(#c);}.d{fill:#3e6e96;}.e{fill:url(#d);}.f{fill:#1c1c1c;}</style><linearGradient id="a" x1="0.072" y1="1.46" x2="0.661" y2="1.48" gradientUnits="objectBoundingBox"><stop offset="0" stop-color="#fefefe"/><stop offset="0.322" stop-color="#a7dff9"/><stop offset="0.42" stop-color="#33c6f4"/><stop offset="0.58" stop-color="#00b0ef"/><stop offset="0.722" stop-color="#008ebc"/><stop offset="0.961" stop-color="#3e6e96"/><stop offset="1" stop-color="#3e6e96"/></linearGradient><linearGradient id="b" x1="0.175" y1="0.808" x2="0.795" y2="0.815" xlink:href="#a"/><linearGradient id="c" x1="0.078" y1="0.361" x2="0.688" y2="0.385" xlink:href="#a"/><linearGradient id="d" x1="0.095" y1="0.84" x2="0.695" y2="0.84" gradientUnits="objectBoundingBox"><stop offset="0" stop-color="#e6e3e1"/><stop offset="0" stop-color="#e3deda"/><stop offset="0" stop-color="#dddad8"/><stop offset="0.22" stop-color="#8d9294"/><stop offset="0.349" stop-color="#51595c"/><stop offset="0.439" stop-color="#8e9699"/><stop offset="0.612" stop-color="#e2e1e2"/><stop offset="0.69" stop-color="#b5b9bd"/><stop offset="0.851" stop-color="#8f969c"/><stop offset="0.89" stop-color="#acb1b5"/><stop offset="1" stop-color="#d2d3d5"/><stop offset="1" stop-color="#a9abae"/></linearGradient></defs><g transform="translate(-79.344 -27.377)"><path class="a" d="M136.054,48.843l-7.366,4.884S142.174,52.6,152.2,49.594h0s-8.849-3.49-33.558-22.217Z" transform="translate(-36.213 0)"/><path class="b" d="M79.344,82.886,89.113,57.05l8.019,3.866S85.6,45.62,81.648,42.743c0,0,2,5.043-2.3,40.133Z" transform="translate(0 -14.16)"/><path class="c" d="M95.476,295.749s2.215-4.192,34.854-20.131l-26.825,5.6-.9-9.106s-6.743,18.351-7.139,23.631h0Z" transform="translate(-14.856 -225.52)"/><path class="d" d="M159.137,55.948s-5.507-.593-32.56-21.644l17.432,21.07-7.594,4.588s18.351-2.452,22.731-4Z" transform="translate(-43.525 -6.383)"/><path class="d" d="M84.021,46.144s2.264,5.062-2.284,39.036L91.15,59.512l7.791,4.252S87.571,49.15,84.021,46.154Z" transform="translate(-2.205 -17.294)"/><path class="d" d="M99.119,305.029s3.026-4.647,34.043-19.241l-26.676,6-.653-8.849s-6.12,17.481-6.714,22.079Z" transform="translate(-18.223 -235.501)"/><path class="e" d="M102.758,55.384,95.125,59.9s9.789-3.095,12.537-4.044h0A191.243,191.243,0,0,1,85.257,34.3l17.5,21.09ZM81.737,74.269,91.15,48.592l7.791,4.252s-7.673-6.822-9.9-8.7h0A217.041,217.041,0,0,1,81.737,74.269Zm5.507-7.515a143.749,143.749,0,0,1,29.91-10.085l-26.676,6-.672-8.849s-2.047,10.066-2.561,12.923h0Z" transform="translate(-2.205 -6.383)"/><path class="d" d="M573.292,454.26h-.84l-.336-.88h-1.542l-.316.88h-.821l1.493-3.846h.821Zm-1.424-1.523-.534-1.424-.524,1.424Zm4.538.109.751.227a1.682,1.682,0,0,1-.573.939,1.62,1.62,0,0,1-1.018.307,1.648,1.648,0,0,1-1.256-.524,2.019,2.019,0,0,1-.494-1.434,2.124,2.124,0,0,1,.494-1.493,1.685,1.685,0,0,1,1.305-.534,1.6,1.6,0,0,1,1.147.415,1.544,1.544,0,0,1,.4.712l-.771.178a.84.84,0,0,0-.287-.475.794.794,0,0,0-.524-.168.86.86,0,0,0-.692.307,1.5,1.5,0,0,0-.267.989,1.6,1.6,0,0,0,.267,1.038.854.854,0,0,0,.682.306.792.792,0,0,0,.534-.2,1.1,1.1,0,0,0,.316-.623Zm4.123,0,.751.227a1.683,1.683,0,0,1-.573.939,1.62,1.62,0,0,1-1.018.307,1.648,1.648,0,0,1-1.256-.524,2.019,2.019,0,0,1-.494-1.434,2.124,2.124,0,0,1,.494-1.493,1.685,1.685,0,0,1,1.305-.534,1.6,1.6,0,0,1,1.147.415,1.544,1.544,0,0,1,.4.712l-.771.178a.84.84,0,0,0-.287-.475A.8.8,0,0,0,579.7,451a.86.86,0,0,0-.692.307,1.5,1.5,0,0,0-.267.989,1.6,1.6,0,0,0,.267,1.038.854.854,0,0,0,.682.306.792.792,0,0,0,.534-.2,1.094,1.094,0,0,0,.316-.623Zm1.661,1.414v-3.846h2.848v.653h-2.067v.85h1.918v.653h-1.918v1.038h2.146v.653h-2.927Zm3.619-1.246.761-.079a.921.921,0,0,0,.277.554.837.837,0,0,0,.564.178.852.852,0,0,0,.564-.158.464.464,0,0,0,.188-.366.4.4,0,0,0-.079-.237.7.7,0,0,0-.277-.168c-.089-.03-.3-.089-.623-.168a2.052,2.052,0,0,1-.87-.386,1,1,0,0,1-.356-.771,1.017,1.017,0,0,1,.643-.939,1.889,1.889,0,0,1,.751-.138,1.64,1.64,0,0,1,1.088.316,1.153,1.153,0,0,1,.386.86l-.781.03a.692.692,0,0,0-.208-.425.746.746,0,0,0-.484-.129.892.892,0,0,0-.524.138.282.282,0,0,0-.119.237.309.309,0,0,0,.119.237,2.116,2.116,0,0,0,.712.257,3.477,3.477,0,0,1,.831.277,1.094,1.094,0,0,1,.425.4,1.173,1.173,0,0,1,.148.613,1.12,1.12,0,0,1-.188.623,1.092,1.092,0,0,1-.514.425,2.108,2.108,0,0,1-.84.138,1.641,1.641,0,0,1-1.117-.336,1.483,1.483,0,0,1-.465-.979Zm3.827,0,.761-.079a.921.921,0,0,0,.277.554.838.838,0,0,0,.564.178.851.851,0,0,0,.564-.158.463.463,0,0,0,.188-.366.4.4,0,0,0-.079-.237.7.7,0,0,0-.277-.168c-.089-.03-.3-.089-.623-.168a2.052,2.052,0,0,1-.87-.386,1,1,0,0,1-.356-.771,1.018,1.018,0,0,1,.643-.939,1.889,1.889,0,0,1,.752-.138,1.641,1.641,0,0,1,1.088.316,1.154,1.154,0,0,1,.386.86l-.781.03a.693.693,0,0,0-.208-.425.746.746,0,0,0-.484-.129.893.893,0,0,0-.524.138.282.282,0,0,0-.119.237.309.309,0,0,0,.119.237,2.117,2.117,0,0,0,.712.257,3.477,3.477,0,0,1,.831.277,1.094,1.094,0,0,1,.425.4,1.173,1.173,0,0,1,.148.613,1.12,1.12,0,0,1-.188.623,1.093,1.093,0,0,1-.514.425,2.108,2.108,0,0,1-.84.138,1.64,1.64,0,0,1-1.117-.336,1.483,1.483,0,0,1-.465-.979Zm6.091,1.246v-3.194H594.59v-.653h3.055v.653h-1.137v3.194h-.781Zm2.66,0v-3.846h.781v1.513h1.513v-1.513h.781v3.846h-.781v-1.681h-1.513v1.681Zm4.123,0v-3.846h2.848v.653h-2.067v.85h1.918v.653h-1.918v1.038h2.146v.653H602.51Zm5.883,0v-3.194h-1.137v-.653h3.055v.653h-1.137v3.194Zm2.66,0v-3.846H613.9v.653h-2.067v.85h1.918v.653h-1.918v1.038h2.146v.653h-2.927Zm6.289-1.414.751.227a1.683,1.683,0,0,1-.573.939,1.62,1.62,0,0,1-1.018.307,1.648,1.648,0,0,1-1.256-.524,2.019,2.019,0,0,1-.494-1.434,2.124,2.124,0,0,1,.494-1.493,1.685,1.685,0,0,1,1.305-.534,1.6,1.6,0,0,1,1.147.415,1.544,1.544,0,0,1,.4.712l-.771.178a.84.84,0,0,0-.287-.475.794.794,0,0,0-.524-.168.86.86,0,0,0-.692.307,1.5,1.5,0,0,0-.267.989,1.6,1.6,0,0,0,.267,1.038.854.854,0,0,0,.682.306.792.792,0,0,0,.534-.2,1.094,1.094,0,0,0,.316-.623ZM619,454.26v-3.846h.781v1.513H621.3v-1.513h.781v3.846H621.3v-1.681h-1.513v1.681Zm4.123,0v-3.846h.751l1.582,2.581v-2.581h.722v3.846H625.4l-1.562-2.531v2.531h-.712Zm3.965-1.9a2.424,2.424,0,0,1,.178-.989,1.754,1.754,0,0,1,.356-.524,1.5,1.5,0,0,1,.494-.346,2.149,2.149,0,0,1,.831-.148,1.848,1.848,0,0,1,1.364.524,2.371,2.371,0,0,1,.01,2.937,1.773,1.773,0,0,1-1.355.524,1.817,1.817,0,0,1-1.364-.524,1.99,1.99,0,0,1-.5-1.444Zm.8-.03a1.4,1.4,0,0,0,.307.989,1.041,1.041,0,0,0,1.533,0,1.5,1.5,0,0,0,.3-1.009,1.475,1.475,0,0,0-.287-.989.994.994,0,0,0-.771-.326.98.98,0,0,0-.771.326,1.452,1.452,0,0,0-.3,1Zm3.807,1.928v-3.817h.781v3.164h1.928v.653Zm3.342-1.9a2.424,2.424,0,0,1,.178-.989,1.753,1.753,0,0,1,.356-.524,1.5,1.5,0,0,1,.494-.346,2.149,2.149,0,0,1,.831-.148,1.848,1.848,0,0,1,1.364.524,2.371,2.371,0,0,1,.01,2.937,1.773,1.773,0,0,1-1.355.524,1.817,1.817,0,0,1-1.364-.524,1.99,1.99,0,0,1-.5-1.444Zm.8-.03a1.4,1.4,0,0,0,.307.989,1.041,1.041,0,0,0,1.533,0,1.5,1.5,0,0,0,.3-1.009,1.475,1.475,0,0,0-.287-.989.994.994,0,0,0-.771-.326.98.98,0,0,0-.771.326,1.452,1.452,0,0,0-.3,1Zm5.577.514v-.653h1.671v1.533a2.026,2.026,0,0,1-.7.415,2.6,2.6,0,0,1-.939.178,2.083,2.083,0,0,1-1.048-.257,1.636,1.636,0,0,1-.672-.722,2.375,2.375,0,0,1-.227-1.028,2.3,2.3,0,0,1,.247-1.068,1.775,1.775,0,0,1,.732-.722,1.98,1.98,0,0,1,.919-.188,1.852,1.852,0,0,1,1.117.3,1.312,1.312,0,0,1,.514.831l-.771.148a.794.794,0,0,0-.307-.445A.92.92,0,0,0,641.4,451a1.065,1.065,0,0,0-.811.326,1.375,1.375,0,0,0-.3.959,1.487,1.487,0,0,0,.307,1.028,1.025,1.025,0,0,0,.8.346,1.215,1.215,0,0,0,.484-.1,1.358,1.358,0,0,0,.425-.237v-.484h-.89Zm3.649,1.414v-1.622l-1.414-2.225h.91l.91,1.523.89-1.523h.89l-1.414,2.235v1.612h-.771Z" transform="translate(-451.62 -389.756)"/><path class="f" d="M1582.676,156.481a3.207,3.207,0,1,1-2.264.939A3.192,3.192,0,0,1,1582.676,156.481Zm1.938,1.266a2.745,2.745,0,1,0,.8,1.938A2.744,2.744,0,0,0,1584.614,157.747Z" transform="translate(-1382.368 -118.969)"/><path class="f" d="M1602.522,178.5V175h1.493a2.311,2.311,0,0,1,.811.1.791.791,0,0,1,.405.336,1.031,1.031,0,0,1,.148.554.952.952,0,0,1-.227.653,1.169,1.169,0,0,1-.692.326,1.658,1.658,0,0,1,.376.3,3.923,3.923,0,0,1,.405.574l.425.682h-.84l-.5-.761a4.351,4.351,0,0,0-.376-.514.611.611,0,0,0-.218-.148,1.1,1.1,0,0,0-.356-.04h-.138v1.463h-.712Zm.712-2.017h.524a2.681,2.681,0,0,0,.633-.04.423.423,0,0,0,.2-.148.448.448,0,0,0,.069-.267.39.39,0,0,0-.1-.287.434.434,0,0,0-.267-.138c-.059-.01-.227-.01-.514-.01h-.554v.89Z" transform="translate(-1403.608 -136.032)"/><path class="f" d="M564.644,232.605a3.761,3.761,0,0,1,.218.7.4.4,0,0,1-.109.4,1.045,1.045,0,0,1-.573.158c-.267.02-.643.03-1.117.03-.494,0-.88,0-1.157-.02a2.933,2.933,0,0,1-.633-.079.592.592,0,0,1-.307-.158.706.706,0,0,1-.148-.257l-1.236-3.223h-7.07l-1.187,3.134a.85.85,0,0,1-.158.3.652.652,0,0,1-.307.188,2.082,2.082,0,0,1-.593.089q-.386.03-1.009.03a9.833,9.833,0,0,1-1.048-.039.945.945,0,0,1-.524-.178.466.466,0,0,1-.109-.405,4.034,4.034,0,0,1,.218-.692l5.774-14.228a.928.928,0,0,1,.208-.336.71.71,0,0,1,.366-.2,3.067,3.067,0,0,1,.712-.089c.3-.01.692-.02,1.187-.02.573,0,1.028,0,1.364.02a3.639,3.639,0,0,1,.791.089.818.818,0,0,1,.405.208,1.037,1.037,0,0,1,.208.376l5.794,14.218Zm-8.6-11.776h-.01l-2.61,6.822h5.26Zm31.314,12.537a.4.4,0,0,1-.079.227.633.633,0,0,1-.3.158,4.006,4.006,0,0,1-.564.1,7.526,7.526,0,0,1-.89.039,7.344,7.344,0,0,1-.88-.039,3.828,3.828,0,0,1-.554-.1.591.591,0,0,1-.287-.158.349.349,0,0,1-.089-.227V220.315h-.03l-5.418,13.042a.574.574,0,0,1-.188.267,1,1,0,0,1-.356.168,2.756,2.756,0,0,1-.573.079c-.237.01-.514.02-.84.02s-.613-.01-.84-.03a3.229,3.229,0,0,1-.574-.1,1.2,1.2,0,0,1-.356-.168.505.505,0,0,1-.178-.237l-5.231-13.042h-.03v13.052a.4.4,0,0,1-.079.227.584.584,0,0,1-.3.158,4.616,4.616,0,0,1-.564.1,7.242,7.242,0,0,1-.88.039,7.345,7.345,0,0,1-.88-.039,4.009,4.009,0,0,1-.564-.1.687.687,0,0,1-.3-.158.4.4,0,0,1-.079-.227V219.079a1.191,1.191,0,0,1,.4-.969,1.553,1.553,0,0,1,1.048-.336H569.4a6.354,6.354,0,0,1,1.147.089,2.421,2.421,0,0,1,.831.306,2.014,2.014,0,0,1,.583.574,3.659,3.659,0,0,1,.405.88l4.044,9.551h.059l4.182-9.532a4.883,4.883,0,0,1,.415-.88,2.319,2.319,0,0,1,.524-.583,1.823,1.823,0,0,1,.7-.316,4.555,4.555,0,0,1,.949-.089h2.571a2.214,2.214,0,0,1,.672.089,1.113,1.113,0,0,1,.465.257.959.959,0,0,1,.277.405,1.386,1.386,0,0,1,.089.554v14.288Zm17.689-.771a3.76,3.76,0,0,1,.217.7.387.387,0,0,1-.119.4,1.046,1.046,0,0,1-.573.158c-.267.02-.643.03-1.117.03-.494,0-.88,0-1.157-.02a2.927,2.927,0,0,1-.633-.079.592.592,0,0,1-.307-.158.706.706,0,0,1-.148-.257l-1.236-3.223H592.9l-1.187,3.134a1.039,1.039,0,0,1-.148.3.652.652,0,0,1-.307.188,2.084,2.084,0,0,1-.593.089q-.386.03-1.008.03a9.838,9.838,0,0,1-1.048-.039.945.945,0,0,1-.524-.178.439.439,0,0,1-.109-.405,4.027,4.027,0,0,1,.218-.692l5.774-14.228a.811.811,0,0,1,.208-.336.709.709,0,0,1,.366-.2,3.068,3.068,0,0,1,.712-.089c.3-.01.692-.02,1.186-.02.574,0,1.028,0,1.365.02a3.639,3.639,0,0,1,.791.089.818.818,0,0,1,.405.208,1.037,1.037,0,0,1,.208.376L605,232.605Zm-8.6-11.776h-.01l-2.61,6.822h5.26Zm24.927,11.845a1.124,1.124,0,0,1-.119.514,1.283,1.283,0,0,1-.316.376,1.347,1.347,0,0,1-.465.218,2.1,2.1,0,0,1-.544.069h-1.631a3.769,3.769,0,0,1-.88-.089,1.954,1.954,0,0,1-.682-.316,2.426,2.426,0,0,1-.6-.623,9.038,9.038,0,0,1-.653-1.008l-4.657-7.495c-.277-.445-.544-.929-.831-1.444s-.534-1.018-.752-1.5h-.03q.059.89.089,1.78c.02.583.03,1.2.03,1.829v8.395a.4.4,0,0,1-.079.227.784.784,0,0,1-.277.168,2.494,2.494,0,0,1-.534.109,6.976,6.976,0,0,1-.86.04,6.8,6.8,0,0,1-.85-.04,2.381,2.381,0,0,1-.524-.109.5.5,0,0,1-.267-.168.4.4,0,0,1-.079-.227V218.961a1.008,1.008,0,0,1,.405-.88,1.6,1.6,0,0,1,.979-.3h2.047a4.856,4.856,0,0,1,.929.079,2.066,2.066,0,0,1,1.236.781,6.793,6.793,0,0,1,.534.811l3.649,5.863c.218.356.425.7.633,1.048s.415.682.6,1.028.386.682.564,1.009.366.662.544.989h.01c-.03-.583-.049-1.187-.069-1.809s-.02-1.226-.02-1.8v-7.524a.348.348,0,0,1,.089-.227.9.9,0,0,1,.287-.178,2.184,2.184,0,0,1,.544-.109q.341-.03.86-.03t.831.03a1.76,1.76,0,0,1,.514.109.589.589,0,0,1,.257.178.373.373,0,0,1,.079.227v14.406Zm6.15.7a.349.349,0,0,1-.089.227.784.784,0,0,1-.316.158,4.684,4.684,0,0,1-.583.1,10.842,10.842,0,0,1-1.849,0,4.567,4.567,0,0,1-.593-.1.784.784,0,0,1-.316-.158.316.316,0,0,1-.1-.227V218.219a.316.316,0,0,1,.1-.227.712.712,0,0,1,.326-.158,4.688,4.688,0,0,1,.583-.1,10.825,10.825,0,0,1,1.849,0,4.689,4.689,0,0,1,.583.1.784.784,0,0,1,.316.158.3.3,0,0,1,.089.227Z" transform="translate(-431.472 -175.378)"/></g></svg>