<svg xmlns="http://www.w3.org/2000/svg" xmlns:xlink="http://www.w3.org/1999/xlink" width="260.941" height="56.39" viewBox="0 0 260.941 56.39"><defs><style>.a{fill:#ed1e7a;}.b{fill:#ff497c;}.c,.g{fill:#fff;}.d{fill:url(#a);}.e{fill:url(#b);}.f{fill:url(#c);}.g{opacity:0.15;}.h{fill:url(#d);}.i{fill:url(#e);}.j{fill:url(#f);}.k{fill:url(#g);}.l{fill:url(#h);}.m{fill:url(#i);}.n{fill:url(#j);}.o{fill:url(#k);}.p{fill:url(#l);}.q{fill:url(#m);}.r{fill:url(#n);}.s{fill:url(#o);}.t{fill:url(#p);}.u{fill:url(#q);}.v{fill:url(#r);}.w{fill:url(#s);}.x{fill:url(#t);}.y{fill:url(#u);}.z{fill:url(#v);}.aa{fill:url(#w);}.ab{fill:#2a2a2a;}</style><linearGradient id="a" y1="0.5" x2="1" y2="0.5" gradientUnits="objectBoundingBox"><stop offset="0.388" stop-color="#ff497c"/><stop offset="1" stop-color="#a02d51"/></linearGradient><linearGradient id="b" x1="0.5" y1="-1.789" x2="0.5" y2="0.832" gradientUnits="objectBoundingBox"><stop offset="0" stop-color="#a02d51"/><stop offset="0.495" stop-color="#ff497c"/></linearGradient><linearGradient id="c" x1="0.444" y1="0.066" x2="0.802" y2="0.993" xlink:href="#a"/><linearGradient id="d" x1="0.516" y1="0.017" x2="0.462" y2="1.011" xlink:href="#a"/><linearGradient id="e" x1="1.106" y1="0.475" x2="0.146" y2="0.512" gradientUnits="objectBoundingBox"><stop offset="0.383" stop-color="#ff497c"/><stop offset="1" stop-color="#a02d51"/></linearGradient><linearGradient id="f" x1="0.47" y1="0.137" x2="0.806" y2="0.884" xlink:href="#b"/><linearGradient id="g" x1="0" y1="0.5" x2="1" y2="0.5" xlink:href="#b"/><linearGradient id="h" x1="0.489" y1="1" x2="0.516" y2="-0.039" gradientUnits="objectBoundingBox"><stop offset="0" stop-color="#ff497c"/><stop offset="1" stop-color="#a02d51"/></linearGradient><linearGradient id="i" x1="0.009" y1="-0.02" x2="0.641" y2="1.014" xlink:href="#a"/><linearGradient id="j" x1="0" y1="0.5" x2="1" y2="0.5" xlink:href="#b"/><linearGradient id="k" x1="0.489" y1="1" x2="0.516" y2="-0.039" xlink:href="#e"/><linearGradient id="l" x1="0.332" y1="0.104" x2="0.77" y2="0.934" xlink:href="#a"/><linearGradient id="m" y1="0.5" x2="1" y2="0.5" gradientUnits="objectBoundingBox"><stop offset="0.505" stop-color="#ff497c"/><stop offset="1" stop-color="#a02d51"/></linearGradient><linearGradient id="n" x1="0" y1="0.5" x2="1" y2="0.5" xlink:href="#m"/><linearGradient id="o" x1="-0.259" y1="0.016" x2="1.472" y2="0.896" gradientUnits="objectBoundingBox"><stop offset="0" stop-color="#a02d51"/><stop offset="0.359" stop-color="#ff497c"/></linearGradient><linearGradient id="p" x1="0.659" y1="1.016" x2="0.212" y2="0.136" gradientUnits="objectBoundingBox"><stop offset="0" stop-color="#a02d51"/><stop offset="0.307" stop-color="#ff497c"/></linearGradient><linearGradient id="q" x1="0.477" y1="-0.007" x2="0.564" y2="0.974" xlink:href="#e"/><linearGradient id="r" x1="1.06" y1="0.477" x2="0.07" y2="0.549" xlink:href="#m"/><linearGradient id="s" x1="0.958" y1="0.773" x2="0.197" y2="0.024" gradientUnits="objectBoundingBox"><stop offset="0.641" stop-color="#ff497c"/><stop offset="1" stop-color="#a02d51"/></linearGradient><linearGradient id="t" x1="0.479" y1="0.286" x2="0.559" y2="1.1" xlink:href="#m"/><linearGradient id="u" y1="0.5" x2="1" y2="0.5" gradientUnits="objectBoundingBox"><stop offset="0.512" stop-color="#ff497c"/><stop offset="1" stop-color="#a02d51"/></linearGradient><linearGradient id="v" x1="0.337" y1="0.976" x2="0.599" y2="0.035" xlink:href="#e"/><linearGradient id="w" x1="0.32" y1="-0.032" x2="0.912" y2="0.991" xlink:href="#a"/></defs><g transform="translate(-36.919 -34.256)"><path class="a" d="M44.564,58.351c.039.042.082.081.123.121A1.56,1.56,0,0,1,44.564,58.351Z"/><path class="b" d="M78.826,71.47a19.175,19.175,0,1,1-38.35,0q0-.657.043-1.3a.139.139,0,0,0-.1-.142,3.423,3.423,0,0,1,1.048-6.718c.041,0,.081,0,.122.008s.11.008.163.013a.437.437,0,0,1,.048.008.249.249,0,0,1,.041.008l.044.009a1.551,1.551,0,0,1,.489.2c.028.017.055.036.081.055a2.734,2.734,0,0,0,1.219.433,2.879,2.879,0,0,0,.294.015,2.781,2.781,0,0,0,1.175-5.3c-.027-.009-.053-.023-.078-.034-.044-.021-.085-.044-.127-.069a.1.1,0,0,1-.033-.021.791.791,0,0,1-.1-.064l-.017-.01a1.191,1.191,0,0,1-.116-.1,1.428,1.428,0,0,1-.11-.11,6.486,6.486,0,0,1,4.951-10.972,6.384,6.384,0,0,1,1.172.157,6.49,6.49,0,0,1,4.61,3.977,5.327,5.327,0,0,1,.251.957,3.31,3.31,0,0,0,2.9,2.682,3.167,3.167,0,0,0,.352.019,3.311,3.311,0,0,0,3.264-2.747,3.529,3.529,0,0,1,.577-1.476,3.422,3.422,0,0,1,6.2,2,1.851,1.851,0,0,1-.008.211,3.394,3.394,0,0,1-.305,1.224.084.084,0,0,0,.037.11A19.172,19.172,0,0,1,78.826,71.47Z"/><path class="b" d="M46.176,61.276a2.21,2.21,0,0,1-2.21,2.211,2.267,2.267,0,0,1-.235-.012,2.211,2.211,0,1,1,2.445-2.2Z"/><path class="b" d="M63.747,45.795a1.58,1.58,0,0,1-1.579,1.579A1.549,1.549,0,0,1,62,47.365a1.579,1.579,0,0,1,.168-3.149,1.618,1.618,0,0,1,.35.039A1.581,1.581,0,0,1,63.747,45.795Z"/><path class="b" d="M54.365,44.441a.991.991,0,0,1-.991.991c-.035,0-.071,0-.1-.005a.991.991,0,1,1,1.1-.986Z"/><path class="b" d="M41.519,51.861a.991.991,0,0,1-.991.991c-.036,0-.071,0-.1-.005a.991.991,0,1,1,1.1-.986Z"/><path class="b" d="M43.073,40.346a.991.991,0,0,1-.991.991.924.924,0,0,1-.1-.006.991.991,0,1,1,1.1-.985Z"/><path class="b" d="M50.631,40.346a.991.991,0,0,1-.991.991.9.9,0,0,1-.1-.006.991.991,0,1,1,1.1-.985Z"/><path class="b" d="M39.537,47.237a1.309,1.309,0,0,1-1.309,1.309,1.269,1.269,0,0,1-.139-.007,1.309,1.309,0,1,1,1.448-1.3Z"/><path class="b" d="M60.307,40.234a1.357,1.357,0,1,1-1.055-1.322A1.356,1.356,0,0,1,60.307,40.234Z"/><path class="b" d="M45.436,45.339a1.58,1.58,0,0,1-1.579,1.58,1.548,1.548,0,0,1-.168-.009,1.579,1.579,0,0,1,.168-3.15,1.558,1.558,0,0,1,.35.04A1.579,1.579,0,0,1,45.436,45.339Z"/><path class="b" d="M52.157,35.835a1.579,1.579,0,0,1-1.579,1.58,1.543,1.543,0,0,1-.167-.009,1.579,1.579,0,0,1,.167-3.15,1.545,1.545,0,0,1,.35.04A1.578,1.578,0,0,1,52.157,35.835Z"/><path class="b" d="M61.5,51.861a2.7,2.7,0,1,1-2.1-2.628A2.7,2.7,0,0,1,61.5,51.861Z"/><path class="c" d="M67.54,70.745a6.373,6.373,0,0,0-4.846-10.324l-9.455.18a.852.852,0,0,0-.835.872l.542,22.514a.49.49,0,0,0,.5.477l11.71-.253A7.059,7.059,0,0,0,67.54,70.745Z"/><path class="b" d="M66.378,69.052a3.08,3.08,0,0,1-2.142-1.363,2.258,2.258,0,0,1-.184-.368.772.772,0,0,0-.521-.5.6.6,0,0,0-.666.361c-.086.212-.084.543.264,1.02a2.814,2.814,0,0,0,.665.649,2.66,2.66,0,0,0,2.139.4A1.105,1.105,0,0,0,66.378,69.052Z"/><path class="b" d="M63.632,65.915s.3-2.1-2.288-2.879a4.472,4.472,0,0,0-4.393,1.255,4.774,4.774,0,0,0-1.107,3.876c.332,2.436,3.027,4.355,3.027,4.355A9.538,9.538,0,0,0,62.1,73.831c.141.034.285.051.427.08.664.133,2.942.556,3.915,2.376a4.463,4.463,0,0,1,.369,3.8,4.328,4.328,0,0,1-.628,1.255s1.661-.627,2.178-3.322a4.746,4.746,0,0,0-1.827-4.411,9.428,9.428,0,0,0-4.087-1.881,4.315,4.315,0,0,1-1.75-.9,3.359,3.359,0,0,1-1.217-2.593.835.835,0,0,1,.122-.452c.192-.3.676-.616,1.83.317a.86.86,0,0,0,.54.195h0a.413.413,0,0,0,.33-.166h0a.219.219,0,0,0,.008-.255,2.076,2.076,0,0,1-.349-1.929.44.44,0,0,1,.706-.141c.086.083.189.189.31.324a.448.448,0,0,0,.352.157C63.462,66.279,63.6,66.2,63.632,65.915Z"/><path class="c" d="M60.661,72.282s-4.941-3.108-2.315-5.32a2,2,0,0,1,1.81-.35l.02.007a.5.5,0,0,0,.108.027.906.906,0,0,0,1.078-.713,1.213,1.213,0,0,0-.089-.849,1.352,1.352,0,0,0-1.032-.705,3.038,3.038,0,0,0-3.3,2.731,4.1,4.1,0,0,0,.695,2.74A6.46,6.46,0,0,0,60.661,72.282Z"/><path class="b" d="M62.912,74.534a2.717,2.717,0,0,1-.147,5.352,2.371,2.371,0,0,1-2.407-1.239,1.084,1.084,0,0,1-.074-.713.866.866,0,0,1,.941-.644,1.066,1.066,0,0,1,.577.149c.268.168.555.524.233,1.244a.091.091,0,0,0,.063.128.962.962,0,0,0,.664-.138,1.456,1.456,0,0,0,.519-2.143,2.167,2.167,0,0,0-.516-.483,6.368,6.368,0,0,0-1.819-.906c-.071-.023-.142-.04-.212-.063A11.126,11.126,0,0,1,57.819,73.8a11.123,11.123,0,0,1-1.772-2.215c-.406-.7-.48-.812-.48-.812s.1.322.228.771a10.15,10.15,0,0,1,.4,2.82v.078c0,.4-.007.8-.026,1.2a8.466,8.466,0,0,0,.226,2.665c.012.038.024.076.035.114a6.666,6.666,0,0,0,1.648,2.83,5.315,5.315,0,0,0,3.481,1.292l.129,0A4.54,4.54,0,0,0,65.9,79.923c1.255-2.805-1.4-4.761-1.4-4.761A3.312,3.312,0,0,0,62.912,74.534Z"/><path class="c" d="M62.1,76.527a2.116,2.116,0,0,0-2.213.271,2.19,2.19,0,0,0-.924,1.736,2.79,2.79,0,0,0,1.476,2.312,4.007,4.007,0,0,0,3.581,0,3.991,3.991,0,0,1-2.99.628,5.144,5.144,0,0,1-3.248-2.363,6.837,6.837,0,0,1-.7-4.1,1.5,1.5,0,0,0,.206.384,1.8,1.8,0,0,0,1.581.683c.356-.017.927-.046,1.494-.052A2.276,2.276,0,0,1,62.1,76.527Z"/><path class="d" d="M177.131,55.447a4.729,4.729,0,0,0-.917-1.295,5.017,5.017,0,0,0-1.514-1.039,4.434,4.434,0,0,0-1.84-.386,4.6,4.6,0,0,0-1.884.386,4.936,4.936,0,0,0-1.528,1.039,4.773,4.773,0,0,0-1.4,3.382v5.283a7.506,7.506,0,0,1-5.876-6.739V54.919a7.488,7.488,0,0,1,14.954.528Z"/><path class="e" d="M168.053,63.368v7.149l-.02-.01.02.025h-5.828V58.566a8.059,8.059,0,0,0,5.828,4.8Z"/><path class="f" d="M183.484,57.534v13h-5.818V55.769h0c0-.09.005-.18.005-.27a8.034,8.034,0,0,0-8.028-8.027l-.231,0c.3-.1.61-.191.926-.268a10.592,10.592,0,0,1,2.522-.3,10.421,10.421,0,0,1,4.14.831,11.049,11.049,0,0,1,2.033,1.132,10.377,10.377,0,0,1,2.557,2.588,11.032,11.032,0,0,1,1.063,1.934A10.43,10.43,0,0,1,183.484,57.534Z"/><path class="g" d="M164.38,61.555a8.005,8.005,0,0,0,3.673,1.813v2.941a16.867,16.867,0,0,1-5.828.074V58.566A8.061,8.061,0,0,0,164.38,61.555Z"/><path class="g" d="M177.131,55.447a4.729,4.729,0,0,0-.917-1.295,5.017,5.017,0,0,0-1.514-1.039,4.434,4.434,0,0,0-1.84-.386,4.6,4.6,0,0,0-1.884.386,4.936,4.936,0,0,0-1.528,1.039,4.773,4.773,0,0,0-1.4,3.382v5.283a7.506,7.506,0,0,1-5.876-6.739V54.919a7.488,7.488,0,0,1,14.954.528Z"/><path class="g" d="M177.666,60.719v-4.95h0c0-.09.005-.18.005-.27a8.034,8.034,0,0,0-8.028-8.027l-.231,0c.3-.1.61-.191.926-.268a10.592,10.592,0,0,1,2.522-.3,10.421,10.421,0,0,1,4.14.831,11.049,11.049,0,0,1,2.033,1.132,10.377,10.377,0,0,1,2.557,2.588A16.663,16.663,0,0,1,177.666,60.719Z"/><path class="h" d="M130.227,52.266a6.853,6.853,0,0,0-12.215,2.689,3.617,3.617,0,0,0-.168,1.082V70.426h-5.923v-14.8h.01A9.538,9.538,0,0,1,129.22,50.49,9.579,9.579,0,0,1,130.227,52.266Z"/><path class="i" d="M131.005,56.04a9.6,9.6,0,0,1-.15,1.692A6.318,6.318,0,0,1,119.4,59.658h2.059a3.619,3.619,0,1,0-2.213-6.478,6.322,6.322,0,0,1,9.881-1.354A6.228,6.228,0,0,1,131,55.785Q131,55.912,131.005,56.04Z"/><path class="j" d="M130.831,70.419h-6.84l-2.928-6.041-2.287-4.72A6.859,6.859,0,0,0,129.558,61.1a9.564,9.564,0,0,1-2.1,2.368l3.319,6.848Z"/><path class="g" d="M123.148,62.912h0a16.809,16.809,0,0,1-2.084,1.465l-2.287-4.72A6.862,6.862,0,0,0,123.148,62.912Z"/><path class="g" d="M124.719,50.031a6.3,6.3,0,0,1,4.412,1.8,16.635,16.635,0,0,1-5.467,10.642,6.32,6.32,0,0,1-4.26-2.81h2.059a3.619,3.619,0,1,0-2.213-6.478A6.318,6.318,0,0,1,124.719,50.031Z"/><path class="g" d="M129.22,50.49c-.005.222-.016.443-.03.663a6.852,6.852,0,0,0-11.178,3.8,3.617,3.617,0,0,0-.168,1.082v9.818a16.648,16.648,0,0,1-5.3.859c-.208,0-.416,0-.623-.011V55.625h.01A9.538,9.538,0,0,1,129.22,50.49Z"/><path class="k" d="M107.925,56.153a10.385,10.385,0,0,0-1.108-1.979,9.922,9.922,0,0,0-1.064-1.254,10.372,10.372,0,0,0-3.233-2.185,10.171,10.171,0,0,0-3.974-.831H93.988v5.112h1.786a7.882,7.882,0,0,1,10.771-.224c.105.094.207.191.308.291a7.948,7.948,0,0,1,1.351,1.8Q108.08,56.515,107.925,56.153Z"/><path class="l" d="M108.688,60.658c0,.137,0,.274-.011.409a9.988,9.988,0,0,1-.322,1.79,7.41,7.41,0,0,1-14.141.035,5.121,5.121,0,0,0,.677.838,5.219,5.219,0,0,0,1.636,1.1,5.029,5.029,0,0,0,2.019.409,4.873,4.873,0,0,0,1.981-.409,5.181,5.181,0,0,0,2.721-2.721,4.88,4.88,0,0,0,.409-1.981,4.97,4.97,0,0,0-.138-1.177,4.723,4.723,0,0,0-.271-.8,5.311,5.311,0,0,0-.775-1.268q-.153-.184-.323-.355a5.27,5.27,0,0,0-1.623-1.1,4.889,4.889,0,0,0-1.981-.408H96.482a7.406,7.406,0,0,1,12.206,5.642Z"/><path class="m" d="M106.336,66.705q-.277.333-.583.642a10.29,10.29,0,0,1-3.233,2.2,10.255,10.255,0,0,1-7.961,0,10.252,10.252,0,0,1-3.245-2.2,10.385,10.385,0,0,1-1.908-2.664c-.1-.194-.19-.392-.278-.6a9.756,9.756,0,0,1-.737-2.767,10.448,10.448,0,0,1-.068-1.194V42.976h5.06V60.127c0,.129,0,.256.015.382,0,.049,0,.1,0,.149a7.917,7.917,0,0,0,.243,1.956,7.887,7.887,0,0,0,12.7,4.091Z"/><path class="g" d="M93.4,60.658a7.917,7.917,0,0,0,.243,1.956,13.532,13.532,0,0,1-5.248-1.293,10.448,10.448,0,0,1-.068-1.194V42.976h5.06V60.127c0,.129,0,.256.015.382C93.4,60.558,93.4,60.608,93.4,60.658Z"/><path class="g" d="M101.279,53.249a7.378,7.378,0,0,1,5.046,1.989,13.65,13.65,0,0,1-2.806,3.712,4.723,4.723,0,0,0-.271-.8,5.311,5.311,0,0,0-.775-1.268q-.153-.184-.323-.355a5.27,5.27,0,0,0-1.623-1.1,4.889,4.889,0,0,0-1.981-.408H96.482A7.373,7.373,0,0,1,101.279,53.249Z"/><path class="g" d="M105.753,52.92a10.372,10.372,0,0,0-3.233-2.185,10.171,10.171,0,0,0-3.974-.831H93.988v5.112h1.786a7.882,7.882,0,0,1,10.771-.224c.1-.2.186-.409.272-.618A9.922,9.922,0,0,0,105.753,52.92Z"/><path class="n" d="M201.158,49.9v5.112h-1.786a7.882,7.882,0,0,0-10.771-.224c-.1.094-.207.191-.308.292a7.9,7.9,0,0,0-1.351,1.8q.124-.372.279-.733a10.385,10.385,0,0,1,1.108-1.979,9.994,9.994,0,0,1,1.064-1.254,10.36,10.36,0,0,1,3.233-2.185A10.171,10.171,0,0,1,196.6,49.9Z"/><path class="o" d="M200.932,62.892a7.41,7.41,0,0,1-14.141-.035q-.129-.466-.211-.945c-.049-.278-.085-.56-.111-.845-.007-.135-.011-.272-.011-.409a7.405,7.405,0,0,1,12.206-5.642H196.6a4.873,4.873,0,0,0-1.981.409,5.25,5.25,0,0,0-1.623,1.1q-.17.171-.323.355a5.311,5.311,0,0,0-.775,1.268,4.724,4.724,0,0,0-.271.8,5.033,5.033,0,0,0,.271,3.158,5.332,5.332,0,0,0,.736,1.219,5.123,5.123,0,0,0,.362.4,5.253,5.253,0,0,0,1.623,1.1,4.873,4.873,0,0,0,1.981.409,5.029,5.029,0,0,0,2.019-.409,5.2,5.2,0,0,0,1.635-1.1A5.075,5.075,0,0,0,200.932,62.892Z"/><path class="p" d="M206.823,46.738V60.127a10.448,10.448,0,0,1-.068,1.194,9.738,9.738,0,0,1-.737,2.767c-.088.2-.18.4-.278.6a10.385,10.385,0,0,1-1.908,2.664,10.236,10.236,0,0,1-3.245,2.2,10.244,10.244,0,0,1-7.961,0,10.261,10.261,0,0,1-3.233-2.2q-.306-.309-.583-.642a7.889,7.889,0,0,0,12.7-4.091,7.917,7.917,0,0,0,.243-1.956c0-.05,0-.1,0-.149l0-.052c.007-.109.011-.219.011-.33V46.738Z"/><path class="g" d="M193.867,53.249a7.373,7.373,0,0,1,4.8,1.767H196.6a4.873,4.873,0,0,0-1.981.409,5.25,5.25,0,0,0-1.623,1.1q-.17.171-.323.355a5.311,5.311,0,0,0-.775,1.268,4.724,4.724,0,0,0-.271.8,5.033,5.033,0,0,0,.271,3.158,5.332,5.332,0,0,0,.736,1.219,14.85,14.85,0,0,1-6.054-1.415c-.049-.278-.085-.56-.111-.845-.007-.135-.011-.272-.011-.409a7.42,7.42,0,0,1,7.409-7.409Z"/><path class="g" d="M196.6,49.9h4.558v5.112h-1.786a7.882,7.882,0,0,0-10.771-.224c-.1.094-.207.191-.308.292a7.9,7.9,0,0,0-1.351,1.8q.124-.372.279-.733a10.385,10.385,0,0,1,1.108-1.979,9.994,9.994,0,0,1,1.064-1.254,10.36,10.36,0,0,1,3.233-2.185A10.171,10.171,0,0,1,196.6,49.9Z"/><path class="g" d="M206.823,46.738v7.181a14.983,14.983,0,0,1-5.071,6.538c.007-.109.011-.219.011-.33V46.738Z"/><path class="q" d="M259.365,64.651v5.575a8.572,8.572,0,0,1-5.286-14.221q-.1.2-.2.406a5.638,5.638,0,0,0-.471,2.285,5.813,5.813,0,0,0,.471,2.329,5.9,5.9,0,0,0,3.155,3.154A5.793,5.793,0,0,0,259.365,64.651Z"/><path class="r" d="M259.365,46.9v5.755a9.127,9.127,0,0,0-1.888,17.683,11.085,11.085,0,0,1-2.7-.783A11.957,11.957,0,0,1,248.5,63.28a11.36,11.36,0,0,1-.929-4.584,11.5,11.5,0,0,1,.6-3.729q.146-.425.325-.84a11.916,11.916,0,0,1,6.279-6.294A11.373,11.373,0,0,1,259.365,46.9Z"/><path class="s" d="M247.185,46.974V70.226a6.023,6.023,0,0,1-6.024-6.024V46.974Z"/><path class="g" d="M247.185,55.664V70.226a6.024,6.024,0,0,1-5.988-5.365A16.211,16.211,0,0,1,247.185,55.664Z"/><path class="g" d="M259.365,52.547v.112a9.127,9.127,0,0,0-1.888,17.683,11.085,11.085,0,0,1-2.7-.783A11.957,11.957,0,0,1,248.5,63.28a11.36,11.36,0,0,1-.929-4.584,11.5,11.5,0,0,1,.6-3.729,16.14,16.14,0,0,1,8.8-2.594A16.347,16.347,0,0,1,259.365,52.547Z"/><path class="g" d="M257.036,64.179a5.793,5.793,0,0,0,2.329.472v5.575a8.572,8.572,0,0,1-5.286-14.221q-.1.2-.2.406a5.638,5.638,0,0,0-.471,2.285,5.813,5.813,0,0,0,.471,2.329,5.9,5.9,0,0,0,3.155,3.154Z"/><path class="t" d="M238.948,62.879a7.246,7.246,0,0,1-.577,2.886,7.412,7.412,0,0,1-1.583,2.352,7.26,7.26,0,0,1-.774.673,7.518,7.518,0,0,1-1.579.91,7.241,7.241,0,0,1-2.885.578h-3.725a7.924,7.924,0,0,0,4.019-3.022,7.764,7.764,0,0,0,1.376-4.419,7.859,7.859,0,0,0-5-7.3h3.326a7.241,7.241,0,0,1,2.885.577,7.435,7.435,0,0,1,3.936,3.921A7.064,7.064,0,0,1,238.948,62.879Z"/><path class="u" d="M225.173,52.951a1.428,1.428,0,0,0-.429,1.05,1.532,1.532,0,0,0,.429,1.081,1.382,1.382,0,0,0,.8.438v.029a7.357,7.357,0,0,1,6.647,6.27,1.528,1.528,0,0,0-1.069-.42h-5.327c-.224,0-.444-.009-.662-.028a6.962,6.962,0,0,1-2.179-.548,7.435,7.435,0,0,1-3.921-3.936A7.263,7.263,0,0,1,218.884,54a7.183,7.183,0,0,1,.577-2.855,7.449,7.449,0,0,1,1.583-2.353,7.709,7.709,0,0,1,2.338-1.6,6.922,6.922,0,0,1,.788-.293,7.017,7.017,0,0,1,2.053-.3h11.743a5.918,5.918,0,0,1-5.918,5.919h-5.825A1.428,1.428,0,0,0,225.173,52.951Z"/><path class="v" d="M232.6,63.953A7.256,7.256,0,0,1,231.378,67a7.375,7.375,0,0,1-5.406,3.124v.155h-6.506a5.928,5.928,0,0,1,5.929-5.919h6.155A1.53,1.53,0,0,0,232.6,63.953Z"/><path class="g" d="M232.6,63.953A7.256,7.256,0,0,1,231.378,67a16.545,16.545,0,0,1-3.449-2.64h3.621A1.53,1.53,0,0,0,232.6,63.953Z"/><path class="g" d="M231.55,61.4h-5.327c-.224,0-.444-.009-.662-.028A16.476,16.476,0,0,1,224.17,46.9a7.017,7.017,0,0,1,2.053-.3h11.743a5.918,5.918,0,0,1-5.918,5.919h-5.825A1.465,1.465,0,0,0,224.744,54a1.532,1.532,0,0,0,.429,1.081,1.382,1.382,0,0,0,.8.438v.029a7.357,7.357,0,0,1,6.647,6.27A1.528,1.528,0,0,0,231.55,61.4Z"/><path class="g" d="M238.948,62.879a7.246,7.246,0,0,1-.577,2.886,7.412,7.412,0,0,1-1.583,2.352,7.26,7.26,0,0,1-.774.673,16.34,16.34,0,0,1-4.17-1.534,7.764,7.764,0,0,0,1.376-4.419,7.859,7.859,0,0,0-5-7.3h3.326a7.241,7.241,0,0,1,2.885.577,7.435,7.435,0,0,1,3.936,3.921A7.064,7.064,0,0,1,238.948,62.879Z"/><path class="b" d="M297.86,46.511l-3.322,5.919h-5.12a7.493,7.493,0,0,0-2-5.919Z"/><path class="w" d="M288.924,51.648a7.047,7.047,0,0,1-5.951,6.925V52.43h-8.12a6.968,6.968,0,0,1,2.216-5.919h9.6a6.954,6.954,0,0,1,2.26,5.137Z"/><path class="x" d="M288.892,54.509V70.426h-5.919V59.113a7.594,7.594,0,0,0,5.919-4.6Z"/><path class="g" d="M288.8,50.329a7,7,0,0,1-4.485,7.9A14.819,14.819,0,0,1,288.8,50.329Z"/><path class="g" d="M288.892,54.509V70.426H287.18a14.874,14.874,0,0,1-2.978-11.6A7.612,7.612,0,0,0,288.892,54.509Z"/><path class="g" d="M297.86,46.511l-3.322,5.919h-5.12a7.494,7.494,0,0,0-.16-2.507,14.784,14.784,0,0,1,7.853-3.412Z"/><path class="b" d="M270.463,66.842v3.584h-5.816v-8.7a8.3,8.3,0,0,0,5.816,5.111Z"/><path class="y" d="M270.463,51.3V66.29a7.755,7.755,0,0,1-5.816-7.272v-.449a7.753,7.753,0,0,1,5.816-7.272Z"/><path class="b" d="M270.463,46.928v3.817a8.3,8.3,0,0,0-5.816,5.111V46.928Z"/><path class="g" d="M270.463,46.928v3.817a8.234,8.234,0,0,0-3.055,1.44,23.722,23.722,0,0,1,2.194-5.257Z"/><path class="g" d="M267.176,53.073a7.713,7.713,0,0,1,3.287-1.776V66.29a7.719,7.719,0,0,1-3.213-1.71,24.079,24.079,0,0,1-.074-11.507Z"/><path class="g" d="M267.493,65.465a8.238,8.238,0,0,0,2.97,1.377v3.584H269.6A23.726,23.726,0,0,1,267.493,65.465Z"/><path class="z" d="M140.717,56.3a5.79,5.79,0,0,0,0,4.584,6.148,6.148,0,0,0,.9,1.467q.177.215.374.411a6.08,6.08,0,0,0,1.878,1.272,5.658,5.658,0,0,0,2.293.473h2.388a8.572,8.572,0,0,1-14.126-6.53c0-.159,0-.317.014-.474a11.532,11.532,0,0,1,.372-2.071,8.576,8.576,0,0,1,16.365-.04,5.922,5.922,0,0,0-.784-.97,6.015,6.015,0,0,0-1.893-1.272,5.831,5.831,0,0,0-2.336-.474,5.658,5.658,0,0,0-2.293.474,6,6,0,0,0-3.149,3.15Z"/><path class="aa" d="M157.989,58.6v11.83h-5.856V58.6c0-.149-.006-.3-.016-.442,0-.058,0-.115,0-.173a9.123,9.123,0,0,0-14.975-7q.321-.385.674-.742A11.862,11.862,0,0,1,141.56,47.7a11.848,11.848,0,0,1,9.212,0,11.816,11.816,0,0,1,3.757,2.544,11.993,11.993,0,0,1,2.207,3.082q.17.337.321.688A11.454,11.454,0,0,1,157.989,58.6Z"/><path class="g" d="M151.172,55.4a5.922,5.922,0,0,0-.784-.97,6.015,6.015,0,0,0-1.893-1.272,5.831,5.831,0,0,0-2.336-.474,5.658,5.658,0,0,0-2.293.474,6,6,0,0,0-3.149,3.15,5.79,5.79,0,0,0,0,4.584,6.148,6.148,0,0,0,.9,1.467,16.055,16.055,0,0,1-6.793-1.786,8.518,8.518,0,0,1-.4-2.588c0-.159,0-.317.014-.474a11.532,11.532,0,0,1,.372-2.071,8.576,8.576,0,0,1,16.365-.04Z"/><path class="g" d="M156.736,53.323a16.2,16.2,0,0,1-4.6,5.653V58.6c0-.149-.006-.3-.016-.442,0-.058,0-.115,0-.173a9.123,9.123,0,0,0-14.975-7q.321-.385.674-.742A11.862,11.862,0,0,1,141.56,47.7a11.848,11.848,0,0,1,9.212,0,11.816,11.816,0,0,1,3.757,2.544A11.993,11.993,0,0,1,156.736,53.323Z"/><path class="n" d="M149.366,64.511a9.122,9.122,0,0,1-12.821-.079,9.18,9.18,0,0,1-1.563-2.085q.144.429.322.848a11.775,11.775,0,0,0,2.514,3.741,11.988,11.988,0,0,0,3.742,2.529,11.763,11.763,0,0,0,4.6.961h5.013l-.006-5.915Z"/><path class="ab" d="M103.185,75.977h.966V84.66h3.693v.927h-4.659Z"/><path class="ab" d="M116.56,83.1l.764.409a3.97,3.97,0,0,1-.868,1.2,3.5,3.5,0,0,1-1.121.691,3.948,3.948,0,0,1-1.406.236,3.39,3.39,0,0,1-2.715-1.137,3.887,3.887,0,0,1-.149-4.98,3.388,3.388,0,0,1,2.818-1.348,3.5,3.5,0,0,1,2.9,1.38,3.812,3.812,0,0,1,.778,2.424h-6.383a2.911,2.911,0,0,0,.79,2.038,2.517,2.517,0,0,0,1.886.794,3,3,0,0,0,1.056-.191,2.846,2.846,0,0,0,.872-.5A4.276,4.276,0,0,0,116.56,83.1Zm0-1.911a3.01,3.01,0,0,0-.532-1.17,2.533,2.533,0,0,0-.926-.706,2.842,2.842,0,0,0-1.212-.269,2.6,2.6,0,0,0-1.795.674,3.065,3.065,0,0,0-.823,1.471Z"/><path class="ab" d="M123.474,85.38a3.3,3.3,0,0,1-1.27.252,2,2,0,0,1-1.659-1.088,2.735,2.735,0,0,1-.357-1.426V75.737h.92v3.435H122.8v.784h-1.685v3.007a1.939,1.939,0,0,0,.752,1.717,1.4,1.4,0,0,0,1.322-.059Q123.363,85.107,123.474,85.38Z"/><path class="ab" d="M131.106,78.349h.921v3.317a7.143,7.143,0,0,0,.129,1.672,1.862,1.862,0,0,0,.745,1.034,2.275,2.275,0,0,0,1.323.379,2.214,2.214,0,0,0,1.295-.369,1.886,1.886,0,0,0,.733-.972,6.6,6.6,0,0,0,.142-1.744V78.349h.933v3.492a5.448,5.448,0,0,1-.346,2.213,2.624,2.624,0,0,1-1.034,1.16,3.26,3.26,0,0,1-1.723.418,3.31,3.31,0,0,1-1.737-.418,2.581,2.581,0,0,1-1.037-1.173,5.737,5.737,0,0,1-.344-2.271Z"/><path class="ab" d="M144.287,79.126l-.584.609a2.123,2.123,0,0,0-1.432-.712,1.089,1.089,0,0,0-.764.291.911.911,0,0,0-.318.693.987.987,0,0,0,.266.649,3.448,3.448,0,0,0,1.1.758,4.01,4.01,0,0,1,1.387,1.017,1.886,1.886,0,0,1,.356,1.121,2,2,0,0,1-.612,1.474,2.094,2.094,0,0,1-1.533.606,2.742,2.742,0,0,1-1.176-.262,2.441,2.441,0,0,1-.923-.736l.576-.654a2,2,0,0,0,1.484.79,1.325,1.325,0,0,0,.93-.353,1.088,1.088,0,0,0,.386-.826,1.069,1.069,0,0,0-.253-.7,4.013,4.013,0,0,0-1.147-.764,3.506,3.506,0,0,1-1.309-.979,1.823,1.823,0,0,1-.35-1.1,1.789,1.789,0,0,1,.554-1.344,1.921,1.921,0,0,1,1.39-.535A2.91,2.91,0,0,1,144.287,79.126Z"/><path class="ab" d="M152.172,75.977h3.052a4.488,4.488,0,0,1,1.756.272,2.134,2.134,0,0,1,.969.836,2.294,2.294,0,0,1,.353,1.244,2.233,2.233,0,0,1-.314,1.167,2.315,2.315,0,0,1-.923.849,3.588,3.588,0,0,1,1.159.6,2.4,2.4,0,0,1,.629.826,2.469,2.469,0,0,1,.227,1.056,2.588,2.588,0,0,1-.849,1.96,3.17,3.17,0,0,1-2.268.8h-3.791Zm.94.939V80h1.7a4.242,4.242,0,0,0,1.468-.188,1.615,1.615,0,0,0,.745-.587,1.532,1.532,0,0,0,.275-.891,1.267,1.267,0,0,0-.46-1.037,2.31,2.31,0,0,0-1.464-.376Zm0,4.044v3.687h2.345A4.219,4.219,0,0,0,157,84.44a1.776,1.776,0,0,0,.788-.642,1.684,1.684,0,0,0-.12-2.067,2.133,2.133,0,0,0-1.15-.654,8.446,8.446,0,0,0-1.705-.117Z"/><path class="ab" d="M161.9,78.349h.92v3.317a7.143,7.143,0,0,0,.129,1.672,1.859,1.859,0,0,0,.746,1.034,2.272,2.272,0,0,0,1.322.379,2.219,2.219,0,0,0,1.3-.369,1.889,1.889,0,0,0,.732-.972,6.589,6.589,0,0,0,.143-1.744V78.349h.933v3.492a5.446,5.446,0,0,1-.347,2.213,2.623,2.623,0,0,1-1.034,1.16,3.258,3.258,0,0,1-1.723.418,3.31,3.31,0,0,1-1.737-.418,2.581,2.581,0,0,1-1.037-1.173,5.74,5.74,0,0,1-.343-2.271Z"/><path class="ab" d="M171.832,75.6a.732.732,0,0,1,.534.22.719.719,0,0,1,.224.531.763.763,0,0,1-.758.758.721.721,0,0,1-.532-.223.738.738,0,0,1-.22-.535.751.751,0,0,1,.752-.751Zm-.454,2.922h.914v7.109h-.914Z"/><path class="ab" d="M175.409,75.77h.92v9.856h-.92Z"/><path class="ab" d="M184.756,85.3a4.024,4.024,0,0,1-1.63.333,3.514,3.514,0,0,1-2.592-1.088,3.6,3.6,0,0,1-1.076-2.625,3.663,3.663,0,0,1,1.07-2.657,3.464,3.464,0,0,1,2.572-1.1,3.525,3.525,0,0,1,1.562.347,3.834,3.834,0,0,1,1.289,1.053V75.6h.907v6.733a4.882,4.882,0,0,1-.7,1.912A4.109,4.109,0,0,1,184.756,85.3Zm.444-1.371a2.83,2.83,0,0,0,.816-2.067,2.936,2.936,0,0,0-.363-1.455,2.638,2.638,0,0,0-1.036-1.03A2.865,2.865,0,0,0,183.191,79a2.714,2.714,0,0,0-1.39.379,2.77,2.77,0,0,0-1.037,1.069,2.916,2.916,0,0,0-.385,1.442,2.864,2.864,0,0,0,.382,1.438,2.8,2.8,0,0,0,1.027,1.054,2.75,2.75,0,0,0,1.416.378A2.7,2.7,0,0,0,185.2,83.928Z"/><path class="ab" d="M194.265,78.349h.965l2.443,5.475,2.372-5.475h.978l-4.244,9.7h-.966l1.368-3.13Z"/><path class="ab" d="M206.92,78.167a3.528,3.528,0,0,1,2.722,1.186,3.723,3.723,0,0,1,.978,2.573,3.685,3.685,0,0,1-1.037,2.6,3.752,3.752,0,0,1-5.33,0,3.816,3.816,0,0,1-.055-5.162A3.524,3.524,0,0,1,206.92,78.167Zm0,.895a2.622,2.622,0,0,0-1.951.842,2.819,2.819,0,0,0-.816,2.035,2.922,2.922,0,0,0,.372,1.441,2.619,2.619,0,0,0,1.008,1.031,2.876,2.876,0,0,0,2.783,0,2.6,2.6,0,0,0,1-1.031,2.941,2.941,0,0,0,.369-1.441,2.819,2.819,0,0,0-.816-2.035A2.622,2.622,0,0,0,206.92,79.062Z"/><path class="ab" d="M213.549,78.349h.92v3.317a7.142,7.142,0,0,0,.129,1.672,1.859,1.859,0,0,0,.746,1.034,2.272,2.272,0,0,0,1.322.379,2.219,2.219,0,0,0,1.3-.369,1.889,1.889,0,0,0,.732-.972,6.6,6.6,0,0,0,.142-1.744V78.349h.933v3.492a5.448,5.448,0,0,1-.346,2.213,2.624,2.624,0,0,1-1.034,1.16,3.26,3.26,0,0,1-1.723.418,3.31,3.31,0,0,1-1.737-.418,2.581,2.581,0,0,1-1.037-1.173,5.74,5.74,0,0,1-.343-2.271Z"/><path class="ab" d="M222.808,82.373v-.856a3.854,3.854,0,0,1,.3-1.043,3.49,3.49,0,0,1,1.219-1.633,2.444,2.444,0,0,1,1.27-.518,1.623,1.623,0,0,1,.8.246l-.473.765a1.1,1.1,0,0,0-1.2.356,3.15,3.15,0,0,0-.82,1.257,9.933,9.933,0,0,0-.169,2.262v2.4h-.933Z"/><path class="ab" d="M233.208,75.977h3.052a4.492,4.492,0,0,1,1.756.272,2.144,2.144,0,0,1,.969.836,2.3,2.3,0,0,1,.353,1.244,2.233,2.233,0,0,1-.314,1.167,2.321,2.321,0,0,1-.923.849,3.588,3.588,0,0,1,1.159.6,2.4,2.4,0,0,1,.629.826,2.469,2.469,0,0,1,.227,1.056,2.588,2.588,0,0,1-.849,1.96,3.17,3.17,0,0,1-2.268.8h-3.791Zm.94.939V80h1.7a4.231,4.231,0,0,0,1.467-.188,1.613,1.613,0,0,0,.746-.587,1.532,1.532,0,0,0,.275-.891,1.267,1.267,0,0,0-.46-1.037,2.312,2.312,0,0,0-1.465-.376Zm0,4.044v3.687h2.345a4.219,4.219,0,0,0,1.539-.207,1.776,1.776,0,0,0,.788-.642,1.684,1.684,0,0,0-.12-2.067,2.133,2.133,0,0,0-1.15-.654,8.446,8.446,0,0,0-1.705-.117Z"/><path class="ab" d="M242.714,82.373v-.856a3.819,3.819,0,0,1,.3-1.043,3.483,3.483,0,0,1,1.218-1.633,2.447,2.447,0,0,1,1.27-.518,1.624,1.624,0,0,1,.8.246l-.473.765a1.106,1.106,0,0,0-1.2.356,3.147,3.147,0,0,0-.819,1.257,9.874,9.874,0,0,0-.169,2.262v2.4h-.933Z"/><path class="ab" d="M251.8,78.167a3.528,3.528,0,0,1,2.722,1.186,3.669,3.669,0,0,1,1,2.573q.012,3.681,0,3.739h-.966V84.051a3.171,3.171,0,0,1-2.754,1.581,3.478,3.478,0,0,1-2.667-1.111,3.816,3.816,0,0,1-.055-5.162A3.524,3.524,0,0,1,251.8,78.167Zm0,.895a2.622,2.622,0,0,0-1.951.842,2.819,2.819,0,0,0-.816,2.035,2.9,2.9,0,0,0,.418,1.484,3.231,3.231,0,0,0,1.416,1.205q2.5.557,3.558-2.275a4.851,4.851,0,0,0-.195-1.736,2.819,2.819,0,0,0-.5-.713A2.558,2.558,0,0,0,251.8,79.062Z"/><path class="ab" d="M258.661,82.93l-.014-.758a4.923,4.923,0,0,1,.046-.946,3.391,3.391,0,0,1,.622-1.795,3.977,3.977,0,0,1,.953-.771,4.407,4.407,0,0,1,1.833-.324,2.868,2.868,0,0,1,1.488.4,2.3,2.3,0,0,1,.975,1.088,5.835,5.835,0,0,1,.291,2.142v3.655h-.907V82.237a8.3,8.3,0,0,0-.1-1.646,1.5,1.5,0,0,0-.642-1,2.742,2.742,0,0,0-1.419-.295,2.422,2.422,0,0,0-1.477.479,1.434,1.434,0,0,0-.6,1.309,10.083,10.083,0,0,0-.123,1.938v2.6h-.92Z"/><path class="ab" d="M273.341,85.3a4.024,4.024,0,0,1-1.63.333,3.514,3.514,0,0,1-2.592-1.088,3.6,3.6,0,0,1-1.076-2.625,3.663,3.663,0,0,1,1.07-2.657,3.464,3.464,0,0,1,2.572-1.1,3.525,3.525,0,0,1,1.562.347,3.847,3.847,0,0,1,1.29,1.053V75.6h.907v6.733a4.9,4.9,0,0,1-.7,1.912A4.1,4.1,0,0,1,273.341,85.3Zm.444-1.371a2.83,2.83,0,0,0,.816-2.067,2.936,2.936,0,0,0-.363-1.455,2.638,2.638,0,0,0-1.036-1.03A2.865,2.865,0,0,0,271.776,79a2.714,2.714,0,0,0-1.39.379,2.77,2.77,0,0,0-1.037,1.069,2.916,2.916,0,0,0-.385,1.442,2.864,2.864,0,0,0,.382,1.438,2.8,2.8,0,0,0,1.027,1.054,2.75,2.75,0,0,0,1.416.378A2.693,2.693,0,0,0,273.785,83.928Z"/></g></svg>