<svg xmlns="http://www.w3.org/2000/svg" width="30.445" height="30.445" viewBox="0 0 30.445 30.445">
  <path id="Icon_awesome-facebook-square" data-name="Icon awesome-facebook-square" d="M27.183,2.25H3.262A3.262,3.262,0,0,0,0,5.512V29.433a3.262,3.262,0,0,0,3.262,3.262h9.327V22.344H8.308V17.472h4.281V13.759c0-4.224,2.514-6.557,6.366-6.557a25.937,25.937,0,0,1,3.773.329v4.145H20.6a2.436,2.436,0,0,0-2.747,2.632v3.163H22.53l-.748,4.872H17.856V32.695h9.327a3.262,3.262,0,0,0,3.262-3.262V5.512A3.262,3.262,0,0,0,27.183,2.25Z" transform="translate(0 -2.25)" fill="#fe346c"/>
</svg>
