<svg xmlns="http://www.w3.org/2000/svg" width="30.44" height="30.439" viewBox="0 0 30.44 30.439">
  <path id="Exclusion_3" data-name="Exclusion 3" d="M28.44,30.44H2a2,2,0,0,1-2-2V2A2,2,0,0,1,2,0H28.44a2,2,0,0,1,2,2V28.44A2,2,0,0,1,28.44,30.44ZM10.706,5.368a5.347,5.347,0,0,0-5.341,5.341v9.021a5.347,5.347,0,0,0,5.341,5.341h9.021a5.348,5.348,0,0,0,5.341-5.341V10.708a5.347,5.347,0,0,0-5.341-5.341ZM19.727,23.29H10.706a3.565,3.565,0,0,1-3.56-3.561V10.708a3.564,3.564,0,0,1,3.56-3.56h9.021a3.565,3.565,0,0,1,3.561,3.56v9.021A3.565,3.565,0,0,1,19.727,23.29Zm-4.51-12.523a4.451,4.451,0,1,0,4.45,4.451A4.456,4.456,0,0,0,15.217,10.768Zm5.1-1.543a.89.89,0,1,0,.89.89A.891.891,0,0,0,20.321,9.225Zm-5.1,8.664a2.671,2.671,0,1,1,2.67-2.67A2.674,2.674,0,0,1,15.217,17.889Z" fill="#fe346c"/>
</svg>
