<svg xmlns="http://www.w3.org/2000/svg" width="30.445" height="30.445" viewBox="0 0 30.445 30.445">
  <path id="Icon_awesome-linkedin" data-name="Icon awesome-linkedin" d="M28.27,2.25H2.168A2.184,2.184,0,0,0,0,4.445V30.5a2.184,2.184,0,0,0,2.168,2.2h26.1a2.19,2.19,0,0,0,2.175-2.2V4.445A2.19,2.19,0,0,0,28.27,2.25ZM9.2,28.346H4.689V13.816H9.208V28.346ZM6.945,11.832A2.616,2.616,0,1,1,9.562,9.216a2.617,2.617,0,0,1-2.616,2.616ZM26.116,28.346H21.6V21.278c0-1.685-.034-3.853-2.345-3.853-2.351,0-2.711,1.835-2.711,3.731v7.19H12.035V13.816h4.329V15.8h.061A4.753,4.753,0,0,1,20.7,13.456c4.567,0,5.416,3.011,5.416,6.925Z" transform="translate(0 -2.25)" fill="#fe346c"/>
</svg>
