<svg xmlns="http://www.w3.org/2000/svg" width="30.445" height="30.445" viewBox="0 0 30.445 30.445">
  <path id="Icon_awesome-twitter-square" data-name="Icon awesome-twitter-square" d="M27.183,2.25H3.262A3.263,3.263,0,0,0,0,5.512V29.433a3.263,3.263,0,0,0,3.262,3.262H27.183a3.263,3.263,0,0,0,3.262-3.262V5.512A3.263,3.263,0,0,0,27.183,2.25ZM23.86,13.042c.014.19.014.387.014.578A12.594,12.594,0,0,1,11.193,26.3a12.622,12.622,0,0,1-6.843-2,9.39,9.39,0,0,0,1.074.054,8.936,8.936,0,0,0,5.532-1.9,4.463,4.463,0,0,1-4.166-3.092A4.8,4.8,0,0,0,8.8,19.28,4.457,4.457,0,0,1,5.233,14.9v-.054a4.454,4.454,0,0,0,2.012.564A4.448,4.448,0,0,1,5.26,11.7a4.4,4.4,0,0,1,.6-2.249,12.655,12.655,0,0,0,9.188,4.662,4.466,4.466,0,0,1,7.6-4.071,8.734,8.734,0,0,0,2.827-1.074,4.445,4.445,0,0,1-1.957,2.453,8.87,8.87,0,0,0,2.569-.693A9.381,9.381,0,0,1,23.86,13.042Z" transform="translate(0 -2.25)" fill="#fe346c"/>
</svg>
