<svg xmlns="http://www.w3.org/2000/svg" width="164.939" height="224.439" viewBox="0 0 164.939 224.439"><defs><style>.a{fill:#ff497c;}</style></defs><g transform="translate(356.362 100.892) rotate(7)"><path class="a" d="M-254.576-19.959c-8.792-9.175-18.147-15.768-29.4-19.437-3.52-1.15-7.007-2.387-10.525-3.542-.563-.185-.8-.384-.559-.909a.933.933,0,0,1,.391-.463c3.2-1.368,6.425-2.68,9.609-4.083a39.747,39.747,0,0,0,5.841-2.89,4.853,4.853,0,0,0,2.047-5.175c-.35-2.016-2.6-3.641-4.368-2.889-5.889,2.5-12.151,3.368-18.364,4.517a94.874,94.874,0,0,0-15.737,4.369c-1.63.6-3.206,1.356-4.793,2.071a7.237,7.237,0,0,0-2.99,9.576,18.239,18.239,0,0,0,1.67,2.794c5.4,6.584,9.988,13.763,14.983,20.641a6.965,6.965,0,0,0,3.521,2.764,4.2,4.2,0,0,0,3.741-.513,4.581,4.581,0,0,0,1.941-5.124,21.927,21.927,0,0,0-1.267-3c-1.559-3.118-3.322-6.148-4.671-9.352-.6-1.438-2.267-2.77-1.2-4.686,1.6-.557,2.944.362,4.325.837,4.944,1.7,9.886,3.418,14.77,5.282A52.623,52.623,0,0,1-267.625-17.5,90.691,90.691,0,0,1-247.4,11.182a63.409,63.409,0,0,1,5.732,28.607c-.036.874-.027,1.751-.138,2.614-1.784,13.855-6.2,26.663-14.6,38.024a98.817,98.817,0,0,1-19.151,19.59,117.27,117.27,0,0,1-36.425,18.81c-2.491.792-5.051,1.364-7.582,2.026-.421.109-.856.165-1.285.245-6.279,1.17-12.507,1.786-18.637-.884-1.849-.8-3.812,1.328-3.483,3.449a5.278,5.278,0,0,0,2.431,3.708,17.557,17.557,0,0,0,6.66,2.59,42.812,42.812,0,0,0,14.326.109,102.083,102.083,0,0,0,24.427-7.125,116.426,116.426,0,0,0,28.568-17.005,102.323,102.323,0,0,0,25.236-29.778A87.991,87.991,0,0,0-230.79,42.675c1.326-12.434-1.085-24.33-6.027-35.736a86.507,86.507,0,0,0-13.726-22.155C-252.1-17.037-253.65-18.87-254.576-19.959Z"/><g transform="translate(-318.381 -25.67)"><path class="a" d="M-306.09,190.655a1.629,1.629,0,0,1-.262,1.395,1.843,1.843,0,0,1-1.027.658,1.687,1.687,0,0,1-1.988-1.161l-3.565-15.61a2,2,0,0,1-.924-.35,1.236,1.236,0,0,1-.525-.758,1.586,1.586,0,0,1,.319-1.371,13.972,13.972,0,0,1,2.959-2.288,12.515,12.515,0,0,1,3.547-1.4,10.713,10.713,0,0,1,3.032-.272,7.206,7.206,0,0,1,2.81.762,6.934,6.934,0,0,1,2.546,1.91,6.166,6.166,0,0,1,1.2,2.464,6.83,6.83,0,0,1,.142,2.161,7.734,7.734,0,0,1-.513,2.137,8.942,8.942,0,0,1-1.109,1.991,8.318,8.318,0,0,1-1.685,1.7l6.653,4.657a1.94,1.94,0,0,1,.678.967,1.3,1.3,0,0,1-.219,1.12,1.668,1.668,0,0,1-1,.632,2.463,2.463,0,0,1-.762.05,1.574,1.574,0,0,1-.771-.3q-.383-.3-1.475-1.071t-2.378-1.635q-1.287-.867-2.395-1.633t-1.449-1.04a21.6,21.6,0,0,1-3.039,1.011Zm2.769-17.717a4.738,4.738,0,0,0-1.83-.411,7.889,7.889,0,0,0-1.87.2,8.589,8.589,0,0,0-2.884,1.222l1.931,8.452q1.12-.326,2.242-.724a8.737,8.737,0,0,0,2.15-1.125,4.218,4.218,0,0,0,1.139-1.015,6.688,6.688,0,0,0,.821-1.33,5.14,5.14,0,0,0,.438-1.471,3.939,3.939,0,0,0-.046-1.431,3.368,3.368,0,0,0-.667-1.377,3.5,3.5,0,0,0-1.425-.99Z" transform="translate(314.423 -6.05)"/><path class="a" d="M-276.165,180.088a2.37,2.37,0,0,1,.9-.488,1.687,1.687,0,0,1,.824-.028,1.531,1.531,0,0,1,.657.337,1.39,1.39,0,0,1,.406.6,1.318,1.318,0,0,1,.011.774,2.333,2.333,0,0,1-.5.877,18.029,18.029,0,0,1-2.465,2.379,9.792,9.792,0,0,1-2.968,1.648,7.382,7.382,0,0,1-2.007.376,6.424,6.424,0,0,1-2.111-.238,7.154,7.154,0,0,1-3.026-1.918,8.308,8.308,0,0,1-1.908-3.1,8.627,8.627,0,0,1-.44-3.473,5.985,5.985,0,0,1,1.26-3.256,11.4,11.4,0,0,1,2.087-2.161,8.771,8.771,0,0,1,2.655-1.45,7.571,7.571,0,0,1,1.579-.358,4.281,4.281,0,0,1,1.523.113,4.877,4.877,0,0,1,2.543,1.614,4,4,0,0,1,.725,1.273,4.1,4.1,0,0,1,.2.909,2.574,2.574,0,0,1-.081.931,4.728,4.728,0,0,1-.87,1.8,11.3,11.3,0,0,1-1.51,1.62,17.72,17.72,0,0,1-1.832,1.422q-.968.659-1.832,1.207-.916.6-1.171.762a2.464,2.464,0,0,1-.319.181,3.82,3.82,0,0,0,1.807,1.048,3.407,3.407,0,0,0,2.23-.254,6.175,6.175,0,0,0,1.952-1.336,22.428,22.428,0,0,0,1.673-1.819Zm-8.191-4.48a3.913,3.913,0,0,0-1.085,2.018,4.955,4.955,0,0,0,.12,2.258c.057-.043.159-.114.307-.213s.367-.252.657-.46.711-.5,1.257-.881c.193-.14.487-.341.878-.609s.782-.556,1.167-.872a8.6,8.6,0,0,0,1.039-.988,1.929,1.929,0,0,0,.519-.973,1.463,1.463,0,0,0-.865-1.154,2.025,2.025,0,0,0-1.289.042,5.376,5.376,0,0,0-1.5.818,12.948,12.948,0,0,0-1.21,1.013Z" transform="translate(310.876 -6.204)"/><path class="a" d="M-265.324,164.162a1.675,1.675,0,0,1,.377-.944,2.106,2.106,0,0,1,.732-.58,1.637,1.637,0,0,1,1.237-.056,1.587,1.587,0,0,1,.953,1.053q.253,1.468.382,2.9t.26,2.878l.032-.014.128,1.6.114,1.646q.121,1.34.229,2.647t.112,2.473a1.849,1.849,0,0,1-1.01,1.253,1.573,1.573,0,0,1-1.788-.2q-2.429-2.431-4.931-4.774t-5.128-4.467a2.081,2.081,0,0,1-.548-.747,1.464,1.464,0,0,1,.174-1.474,1.546,1.546,0,0,1,.607-.485,2.039,2.039,0,0,1,1.849.173q1.76,1.458,3.567,3.061t3.691,3.419c0-.172-.016-.351-.036-.53s-.045-.388-.078-.624-.068-.521-.108-.855-.081-.741-.125-1.224q-.131-1.524-.293-3.032t-.4-3.094Z" transform="translate(308.865 -5.082)"/><path class="a" d="M-248.877,169.9a1.615,1.615,0,0,1,.145,1.371,1.739,1.739,0,0,1-.776.905,1.619,1.619,0,0,1-2.2-.534l-6.445-11.317a1.9,1.9,0,0,1,.006-1.24,1.615,1.615,0,0,1,.743-.828,1.767,1.767,0,0,1,1.046-.212,1.651,1.651,0,0,1,1.057.568Zm-12.148-14.212a1.931,1.931,0,0,1,.737-2.611,1.883,1.883,0,0,1,1.488-.184,1.843,1.843,0,0,1,1.156.907,1.787,1.787,0,0,1,.158,1.443,1.919,1.919,0,0,1-.943,1.157,1.875,1.875,0,0,1-1.448.181A1.791,1.791,0,0,1-261.025,155.689Z" transform="translate(307.06 -3.742)"/><path class="a" d="M-234.658,157.866a2.4,2.4,0,0,1,.732-.718,1.7,1.7,0,0,1,.784-.253,1.526,1.526,0,0,1,.725.142,1.379,1.379,0,0,1,.557.469,1.316,1.316,0,0,1,.223.742,2.311,2.311,0,0,1-.235.98,17.925,17.925,0,0,1-1.714,2.967,9.791,9.791,0,0,1-2.4,2.4,7.382,7.382,0,0,1-1.825.917,6.4,6.4,0,0,1-2.1.351,7.133,7.133,0,0,1-3.437-1.01,8.314,8.314,0,0,1-2.687-2.45,8.621,8.621,0,0,1-1.381-3.214,5.984,5.984,0,0,1,.314-3.476,11.39,11.39,0,0,1,1.412-2.651,8.775,8.775,0,0,1,2.154-2.124,7.562,7.562,0,0,1,1.42-.781,4.246,4.246,0,0,1,1.5-.31,4.867,4.867,0,0,1,2.889.849,4.012,4.012,0,0,1,1.047,1.024,4.052,4.052,0,0,1,.445.819,2.581,2.581,0,0,1,.18.918,4.753,4.753,0,0,1-.34,1.969A11.232,11.232,0,0,1-237.4,157.4a17.653,17.653,0,0,1-1.37,1.871q-.752.9-1.432,1.663c-.477.554-.782.907-.916,1.054a2.374,2.374,0,0,1-.256.262,3.816,3.816,0,0,0,2.025.51,3.408,3.408,0,0,0,2.074-.859,6.2,6.2,0,0,0,1.508-1.822,23.085,23.085,0,0,0,1.11-2.214Zm-9.109-2.05a3.914,3.914,0,0,0-.488,2.24,4.952,4.952,0,0,0,.737,2.138c.043-.058.121-.155.237-.29s.282-.343.5-.623.544-.678.965-1.194q.221-.28.677-.825t.885-1.16a8.467,8.467,0,0,0,.725-1.237,1.922,1.922,0,0,0,.232-1.079,1.467,1.467,0,0,0-1.149-.87,2.026,2.026,0,0,0-1.227.4,5.386,5.386,0,0,0-1.212,1.2A12.9,12.9,0,0,0-243.767,155.816Z" transform="translate(305.159 -3.331)"/><path class="a" d="M-222.841,132a1.684,1.684,0,0,1,.022-1.018,2.006,2.006,0,0,1,.459-.775,1.665,1.665,0,0,1,1.161-.512,1.582,1.582,0,0,1,1.262.65l.851,1.573q1.414,2.614,2.74,5.239a48.716,48.716,0,0,1,2.378,5.556,1.85,1.85,0,0,1-.507,1.53,2.038,2.038,0,0,1-1.5.537q-1.987-.676-3.893-1.456t-3.846-1.6c-.1-.031-.169-.055-.218-.072s-.1-.03-.146-.047-.082-.016-.1,0q.487,1.065.914,2.069t.914,2.068q.389.872.831,1.837t.854,1.961a1.785,1.785,0,0,1-.506,1.479,1.738,1.738,0,0,1-1.864.417q-1.747-.721-3.263-1.481t-3.02-1.58q-1.794-.967-3.058-1.689a26.8,26.8,0,0,1-2.282-1.448,1.538,1.538,0,0,1-.73-1.306,1.758,1.758,0,0,1,.5-1.237,1.823,1.823,0,0,1,.92-.487,1.706,1.706,0,0,1,1.188.214q1.8,1.257,3.629,2.354t3.725,2.014q-.292-.678-.585-1.332t-.586-1.332l-2.267-5.252a1.733,1.733,0,0,1,.01-.933,1.832,1.832,0,0,1,1.415-1.252,1.657,1.657,0,0,1,1.14.238,32.923,32.923,0,0,0,3.931,1.856q1.964.771,3.905,1.59-.731-1.551-1.669-3.3t-1.888-3.52l-.827-1.5Z" transform="translate(303.476 -0.539)"/><path class="a" d="M-190.892,103.573a1.9,1.9,0,0,1,1.695-.075,1.31,1.31,0,0,1,.628.881,1.873,1.873,0,0,1-.27,1.362,1.485,1.485,0,0,1-.247.371l.017-.029a20.193,20.193,0,0,1-1.883,1.577,12.709,12.709,0,0,1-2.192,1.288,13.078,13.078,0,0,1,.3,3.464,6.87,6.87,0,0,1-.861,3.014,7.165,7.165,0,0,1-1.681,2.025,7.281,7.281,0,0,1-2.232,1.284,6.445,6.445,0,0,1-2.52.36,5.794,5.794,0,0,1-2.547-.757,5.973,5.973,0,0,1-1.533-1.193,5.53,5.53,0,0,1-.955-1.458,6.763,6.763,0,0,1-.494-1.649,13.7,13.7,0,0,1-.18-1.789,15.467,15.467,0,0,1-2.672-.04,6.485,6.485,0,0,1-2.577-.774,3.638,3.638,0,0,1-1.379-1.3,4.613,4.613,0,0,1-.613-1.717,5.34,5.34,0,0,1,.053-1.854,5.75,5.75,0,0,1,.606-1.683,5.6,5.6,0,0,1,1.173-1.465,4.9,4.9,0,0,1,1.572-.948,4.392,4.392,0,0,1,1.817-.26,4.445,4.445,0,0,1,1.907.6,6.029,6.029,0,0,1,1.337,1.022,6.431,6.431,0,0,1,1.043,1.369,6.372,6.372,0,0,1,.643,1.595,5.747,5.747,0,0,1,.177,1.689l2.838-.573q.742-.133,1.418-.287a9.761,9.761,0,0,0,1.38-.427q-.6-1.4-1.291-2.723t-1.307-2.34a1.9,1.9,0,0,1-.286-1,1.8,1.8,0,0,1,.215-.841,1.693,1.693,0,0,1,.911-.787,1.344,1.344,0,0,1,1.164.1,3.053,3.053,0,0,1,.9.917,16.519,16.519,0,0,1,.98,1.589,20.352,20.352,0,0,1,.927,1.931q.432,1.026.759,1.916a15.127,15.127,0,0,0,1.68-1.044,11.62,11.62,0,0,0,1.514-1.3Zm-17.483,5.3a3.6,3.6,0,0,0,1.2.278,6.8,6.8,0,0,0,1.4-.081,8.649,8.649,0,0,0-.458-1.886,3.031,3.031,0,0,0-1.471-1.548,1.251,1.251,0,0,0-1.219-.033,2.09,2.09,0,0,0-.936.87,1.252,1.252,0,0,0-.115,1.189,1.951,1.951,0,0,0,.849.868c.121.067.242.129.369.185s.254.106.384.155Zm12.46,3.626a6.429,6.429,0,0,0-.171-2.293,30.747,30.747,0,0,1-3.285,1.03q-1.644.416-3.33.691c.015.349.034.687.061,1.016a3.491,3.491,0,0,0,.2.937,2.881,2.881,0,0,0,.491.843,3.169,3.169,0,0,0,.924.733,3.028,3.028,0,0,0,1.347.4,3.493,3.493,0,0,0,2.479-.853,3.829,3.829,0,0,0,.861-1.049,3.4,3.4,0,0,0,.425-1.454Z" transform="translate(300.395 3.655)"/><path class="a" d="M-179.385,79.507a1.631,1.631,0,0,1,1.087.913,1.841,1.841,0,0,1,.067,1.217,1.687,1.687,0,0,1-1.987,1.162l-15.351-4.562a2,2,0,0,1-.759.633,1.232,1.232,0,0,1-.918.085A1.585,1.585,0,0,1-198.283,78a13.937,13.937,0,0,1-.543-3.7,12.533,12.533,0,0,1,.515-3.78,10.769,10.769,0,0,1,1.253-2.773,7.2,7.2,0,0,1,2.044-2.074A6.94,6.94,0,0,1-192.1,64.4a6.162,6.162,0,0,1,2.734.168,6.819,6.819,0,0,1,1.952.938,7.742,7.742,0,0,1,1.608,1.5,8.879,8.879,0,0,1,1.188,1.944,8.314,8.314,0,0,1,.655,2.3l7.325-3.507a1.959,1.959,0,0,1,1.176-.115,1.306,1.306,0,0,1,.868.741,1.665,1.665,0,0,1,.06,1.18,2.5,2.5,0,0,1-.33.688,1.566,1.566,0,0,1-.638.526q-.45.187-1.652.762t-2.595,1.266q-1.387.7-2.6,1.284t-1.618.753a21.545,21.545,0,0,1-.613,3.143Zm-14.07-11.118a4.723,4.723,0,0,0-1.255,1.4,7.787,7.787,0,0,0-.745,1.727,8.57,8.57,0,0,0-.352,3.113l8.31,2.469q.266-1.136.471-2.309a8.738,8.738,0,0,0,.078-2.426,4.266,4.266,0,0,0-.326-1.491,6.809,6.809,0,0,0-.755-1.368,5.147,5.147,0,0,0-1.067-1.1,3.942,3.942,0,0,0-1.266-.662,3.39,3.39,0,0,0-1.527-.095,3.486,3.486,0,0,0-1.568.751Z" transform="translate(298.412 8.516)"/><path class="a" d="M-174.624,47.978a2.381,2.381,0,0,1-.04-1.025,1.693,1.693,0,0,1,.335-.748,1.535,1.535,0,0,1,.593-.443,1.4,1.4,0,0,1,.721-.1,1.322,1.322,0,0,1,.7.333,2.31,2.31,0,0,1,.566.833,17.962,17.962,0,0,1,1.048,3.261,9.822,9.822,0,0,1,.168,3.391,7.417,7.417,0,0,1-.544,1.966,6.454,6.454,0,0,1-1.146,1.788,7.122,7.122,0,0,1-3.057,1.869,8.29,8.29,0,0,1-3.62.345,8.634,8.634,0,0,1-3.309-1.134,5.983,5.983,0,0,1-2.364-2.568,11.327,11.327,0,0,1-1.018-2.825,8.815,8.815,0,0,1-.128-3.021,7.618,7.618,0,0,1,.376-1.576,4.269,4.269,0,0,1,.774-1.317,4.871,4.871,0,0,1,2.57-1.57,4,4,0,0,1,1.462-.087,4.012,4.012,0,0,1,.9.219,2.61,2.61,0,0,1,.8.483,4.751,4.751,0,0,1,1.231,1.575,11.4,11.4,0,0,1,.787,2.072,17.635,17.635,0,0,1,.47,2.274q.162,1.16.272,2.177.138,1.089.168,1.386a2.479,2.479,0,0,1,.022.365,3.82,3.82,0,0,0,1.738-1.158,3.4,3.4,0,0,0,.756-2.113,6.163,6.163,0,0,0-.338-2.342,22.927,22.927,0,0,0-.9-2.315Zm-7.636,5.374a3.918,3.918,0,0,0,1.331,1.864,4.958,4.958,0,0,0,2.081.89c-.015-.072-.033-.195-.056-.37s-.063-.438-.123-.793-.136-.857-.236-1.515q-.057-.353-.157-1.057c-.065-.47-.154-.946-.264-1.434a8.652,8.652,0,0,0-.428-1.368,1.92,1.92,0,0,0-.645-.9,1.466,1.466,0,0,0-1.416.267,2.031,2.031,0,0,0-.532,1.176,5.4,5.4,0,0,0,.076,1.7A12.838,12.838,0,0,0-182.26,53.352Z" transform="translate(296.607 11.146)"/><path class="a" d="M-172.467,34.367a1.62,1.62,0,0,1,1.278.525,1.715,1.715,0,0,1,.071,2.186,1.662,1.662,0,0,1-1.159.61l-9.492.151.008.451a2.385,2.385,0,0,1-.534,1.316,1.3,1.3,0,0,1-.963.45,1.5,1.5,0,0,1-1.029-.452,1.84,1.84,0,0,1-.525-1.4l-.006-.313-3.618.057a6.116,6.116,0,0,1-2.242-.355,5.455,5.455,0,0,1-1.775-1.056,4.818,4.818,0,0,1-1.188-1.631,5.307,5.307,0,0,1-.443-2.112,7.329,7.329,0,0,1,.133-1.322,8.6,8.6,0,0,1,.438-1.583,4.552,4.552,0,0,1,.768-1.33,1.465,1.465,0,0,1,1.12-.569,1.336,1.336,0,0,1,1.018.447,1.631,1.631,0,0,1,.447,1.141,2.522,2.522,0,0,1-.125.791,8.2,8.2,0,0,1-.3.793l0-.035q-.163.414-.328.845a2.2,2.2,0,0,0-.159.808q.025,1.474,2.381,1.847l3.748-.059L-185.1,30.7a2.056,2.056,0,0,1,.623-1.141,1.428,1.428,0,0,1,.88-.358,1.11,1.11,0,0,1,.928.395,2.666,2.666,0,0,1,.5,1.055,6.834,6.834,0,0,1,.194,1.434q.03.788.042,1.542l.015.892Z" transform="translate(297.756 13.547)"/><path class="a" d="M-191.185,26.745a1.933,1.933,0,0,1-2.149-1.658,1.886,1.886,0,0,1,.383-1.448,1.841,1.841,0,0,1,1.272-.732,1.79,1.79,0,0,1,1.4.389,1.918,1.918,0,0,1,.722,1.306,1.873,1.873,0,0,1-.373,1.411,1.787,1.787,0,0,1-1.253.732Zm17.711-5.983a1.626,1.626,0,0,1,1.327.376A1.741,1.741,0,0,1-171.6,22.2a1.615,1.615,0,0,1-1.316,1.846l-12.9,1.767a1.906,1.906,0,0,1-1.148-.467,1.619,1.619,0,0,1-.492-1,1.773,1.773,0,0,1,.193-1.051,1.656,1.656,0,0,1,.92-.769Z" transform="translate(297.655 14.551)"/><path class="a" d="M-176.792.119a1.6,1.6,0,0,1,1.372.231,1.773,1.773,0,0,1,.588,2.149,1.65,1.65,0,0,1-.979.87l-.814.209q-.448.115-1.189.323t-1.922.511l-3.07.789c-.288.074-.656.156-1.1.248a6.726,6.726,0,0,0-1.294.4,3.1,3.1,0,0,0-1.013.669.992.992,0,0,0-.238,1,3.9,3.9,0,0,0,1.067,1.808,5.812,5.812,0,0,0,2.1,1.293,4.772,4.772,0,0,0,.852.224,3.734,3.734,0,0,0,1.068-.043l3.336-.857q1.642-.423,3.327-.891a1.623,1.623,0,0,1,1.364.211,1.737,1.737,0,0,1,.675.983,1.717,1.717,0,0,1-.1,1.129,1.661,1.661,0,0,1-.983.864l-5.981,1.537q-1.463.375-2.937.772t-3.07.805a1.8,1.8,0,0,1-1.219-.334,1.677,1.677,0,0,1-.589-.917,1.8,1.8,0,0,1,.046-.992,1.462,1.462,0,0,1,.686-.842,8.849,8.849,0,0,1-1.588-1.794,7.023,7.023,0,0,1-.969-2.166,5.354,5.354,0,0,1-.022-2.569,4.671,4.671,0,0,1,1.354-2.318,3.843,3.843,0,0,1,1.154-.758,9.527,9.527,0,0,1,1.337-.451q.7-.174,1.4-.288t1.3-.263Z" transform="translate(297.125 17.416)"/><path class="a" d="M-186.96-17.314a2.4,2.4,0,0,1-.561-.859,1.686,1.686,0,0,1-.093-.818,1.51,1.51,0,0,1,.281-.68,1.373,1.373,0,0,1,.569-.453,1.3,1.3,0,0,1,.774-.072,2.289,2.289,0,0,1,.913.425A17.956,17.956,0,0,1-182.5-17.51a9.8,9.8,0,0,1,1.882,2.823,7.423,7.423,0,0,1,.541,1.971,6.447,6.447,0,0,1-.067,2.121A7.142,7.142,0,0,1-181.81-7.42a8.321,8.321,0,0,1-2.931,2.153,8.626,8.626,0,0,1-3.424.725,5.979,5.979,0,0,1-3.345-.992,11.356,11.356,0,0,1-2.325-1.9,8.816,8.816,0,0,1-1.67-2.532,7.575,7.575,0,0,1-.485-1.546A4.234,4.234,0,0,1-196-13.043a4.88,4.88,0,0,1,1.4-2.665,4.041,4.041,0,0,1,1.21-.825,4.073,4.073,0,0,1,.889-.276,2.577,2.577,0,0,1,.937.006,4.716,4.716,0,0,1,1.864.72,11.281,11.281,0,0,1,1.738,1.374A17.723,17.723,0,0,1-186.395-13q.73.917,1.35,1.731.675.865.855,1.1a2.138,2.138,0,0,1,.207.3,3.835,3.835,0,0,0,.9-1.887,3.418,3.418,0,0,0-.436-2.2,6.182,6.182,0,0,0-1.491-1.836,22.374,22.374,0,0,0-1.948-1.527Zm-3.8,8.531a3.923,3.923,0,0,0,2.1.917,4.958,4.958,0,0,0,2.242-.3c-.047-.056-.128-.151-.239-.289s-.281-.345-.512-.618-.557-.666-.98-1.18c-.155-.182-.38-.457-.678-.827s-.615-.73-.963-1.095a8.577,8.577,0,0,0-1.069-.954,1.92,1.92,0,0,0-1.012-.438,1.465,1.465,0,0,0-1.08.955,2.033,2.033,0,0,0,.147,1.282,5.443,5.443,0,0,0,.937,1.423,13.006,13.006,0,0,0,1.105,1.128Z" transform="translate(298.03 20.225)"/></g></g></svg>