<svg xmlns="http://www.w3.org/2000/svg" width="143.017" height="221.412" viewBox="0 0 143.017 221.412"><defs><style>.a{fill:#ff497c;}</style></defs><path class="a" d="M9479.747,2730.92c2.833-4.048,4.985-7.1,7.108-10.163a19.768,19.768,0,0,1,12.186-8.341c5.912-1.36,9.656,1.715,9.453,7.736a20.648,20.648,0,0,1-4.073,11.738c-5.552,7.582-11.063,15.2-16.808,22.634-3.537,4.58-7.541,8.676-13.705,9.8-3.061.556-5.541-.006-7.568-2.377a19.963,19.963,0,0,1-2.154-2.582c-8.633-14.576-17.922-28.823-23.043-45.187a15.422,15.422,0,0,1-.473-2.9c-.34-3.086.646-5.888,3.488-7.011,2.689-1.062,4.795.973,6.264,3.119,3.38,4.939,6.568,10.015,11.119,14.521,2.171-5.293,2.988-10.532,4.009-15.692,3.347-16.915,10.788-32.05,19.636-46.661,8.2-13.542,17.529-26.46,23.467-41.285a70.184,70.184,0,0,0,2.594-7.99c1.041-3.91-.023-5.135-4.045-5.149-7.356-.023-13.5,3.662-19.691,6.8-12.795,6.485-24.219,15.163-36.05,23.2-9.378,6.374-18.989,12.566-29.771,16.388-14.051,4.979-27.994-1.691-34.365-16.211-4.553-10.374-4.963-21.167-2.822-32.156,3.93-20.165,11.838-38.544,24.617-54.723a35.848,35.848,0,0,1,4.007-4.3c1.229-1.118,2.754-1.5,4.179-.243,1.468,1.3.513,2.561-.267,3.72-6.147,9.142-10.61,19.142-14.5,29.369-4.658,12.257-7.574,24.959-7.714,38.151a34.366,34.366,0,0,0,5.563,19.526c3.156,4.835,7.844,6.411,13.557,4.763,7.254-2.094,13.543-6.086,19.784-10.11,15.319-9.873,29.668-21.247,45.861-29.767a84.773,84.773,0,0,1,26.265-8.626c12.51-2,21.125,6.391,20.366,19.117-.687,11.523-6.141,21.185-11.491,30.836-7.136,12.875-15.18,25.256-22.092,38.243-8.078,15.177-11.5,31.818-13.24,48.817A21.19,21.19,0,0,0,9479.747,2730.92Z" transform="translate(-9383.254 -2543.105)"/></svg>