<svg xmlns="http://www.w3.org/2000/svg" width="115.819" height="225.931" viewBox="0 0 115.819 225.931"><defs><style>.a{fill:#ff497c;}</style></defs><path class="a" d="M1362.2,89.271c16.5-8.955,24.744-32.756,16.568-47.808a.106.106,0,0,0-.128-.05c-11.12,3.828-22.653,4.224-34.274,2.782-11.546-1.432-21.518-6.1-28.361-15.809-6.961-9.878-7.091-21.258-2.787-31.647,2.4-5.789,9.573-10.586,15.438-11.569,24.38-4.085,40.81,6.948,54.14,27.566,1.051,1.625,2.227,3.168,3.713,5.264a.113.113,0,0,0,.167.019c10.047-9.4,14.45-20.9,16.09-33.642,1.648-12.812-4-24.172-8.4-35.755l1.687-1.221a41.092,41.092,0,0,1,5.254,4.513c6.719,7.8,9.09,17.338,9.776,27.233,1.327,19.155-2.626,36.721-16.339,51.245-1.319,1.4-1.341,4.588-1.06,6.833,1.773,14.119,2.782,28.212-2.234,41.888-3.874,10.561-11.417,18.2-20.71,24.307-1.323.869-3.026,2.782-2.879,4.012,1.264,10.55,2.905,21.056,4.611,32.767a.108.108,0,0,0,.2.034c3.091-5.672,5.7-10.478,8.329-15.275,2.24-4.089,6.111-5.748,10.385-4.139a3.811,3.811,0,0,1,2.061,2.826c-.049,3.131.021,6.482-1.046,9.341-4.48,12-9.428,23.828-14.041,35.781-1.278,3.314-3.334,4.072-6.771,4.423-8.5.867-14.1-2.239-18.545-9.555-3.42-5.632-8.352-10.347-12.613-15.469-2.5-3-5.651-6.784-2.65-10.086,3.055-3.36,7.119-.4,10.294,1.759,4.846,3.294,9.595,6.729,14.383,10.107l1.732-1.063c-1.269-8.9-2.42-17.83-3.883-26.7-.619-3.756-.848-8.661-3.248-10.714-2.134-1.825-7.024-.443-10.7-.453-6-.016-12,.094-18-.043-9.576-.218-17.765-3.911-24.86-10.244-8.557-7.639-9.078-17.414-6.93-27.586,1.408-6.665,8.91-10.717,14.718-11.544a54.291,54.291,0,0,1,18.884.43c.877.166,1.765.291,2.65.406,11.827,1.538,19.5,9.42,25.247,19.522,1.368,2.4,2.658,4.854,3.977,7.274A.108.108,0,0,0,1362.2,89.271Zm10.526-62.347C1365.4,14.8,1356.415,4.712,1342.739.211c-5.481-1.8-13.025.192-16.542,4.766-3.126,4.064-1.954,7.125-.069,10.029a36.508,36.508,0,0,0,9.507,9.988c10.816,7.63,25.42,10.287,37.061,2.076A.112.112,0,0,0,1372.727,26.924Zm-34.8,72.639a.1.1,0,0,0,.035,0,98.969,98.969,0,0,0,10.422-2.7c.919-.328,2.015-3,1.577-3.84-4.356-8.293-10.4-14.911-19.152-18.932-7.943-3.648-13.879-4.3-20.365,1.125-2.7,2.259-3.707,9.039-1.7,11.915C1315.717,97.127,1325.71,98.314,1337.93,99.563Z" transform="translate(-1295.512 52.599)"/></svg>