<svg xmlns="http://www.w3.org/2000/svg" width="78.795" height="220.54" viewBox="0 0 78.795 220.54"><defs><style>.a{fill:#ff497c;}</style></defs><path class="a" d="M979.883,151.283c26.935-58.456,39.693-118.536,24.553-182.411,2.952,3.26,4.424,7.115,5.735,11.014,6.576,19.565,9.424,39.82,11.194,60.292a232.809,232.809,0,0,1-7.456,81.726c-2.292,8.433-5.386,16.649-8.117,24.98,1.6.932,2.559-.421,3.644-1.176,3.866-2.691,7.734-5.382,11.526-8.176,1.82-1.34,3.3-1.442,5.054.177a146.448,146.448,0,0,1,10.661,10.935c1.882,2.139,1.591,3.755-.613,5.368-1.847,1.352-3.474,3.031-5.4,4.242-12.641,7.938-23.947,17.7-36.1,26.308a15.71,15.71,0,0,0-2.706,2.1c-2.978,3.317-5.32,3.724-8.779.733-10.981-9.5-18.286-21.24-19.7-35.867-1.052-10.9-2.549-21.734-4-32.579-.131-.98-.639-2.2.281-2.872,1.221-.9,2.122.376,2.976,1a30.272,30.272,0,0,1,11.479,15.767Q977,142.061,979.883,151.283Z" transform="translate(-959.126 31.128)"/></svg>