<svg xmlns="http://www.w3.org/2000/svg" width="84.42" height="220.089" viewBox="0 0 84.42 220.089"><defs><style>.a{fill:#ff497c;}</style></defs><path class="a" d="M790.552,142.4c.825-2.388.483-4.216.483-6,0-16.157-.292-32.323.833-48.453.423-6.071.9-12.245,4.081-17.709,2.143-3.68,3.609-3.793,6.112-.262,3.552,5.012,3.981,11.027,4.359,16.822,1.922,29.442,2.448,58.943,3.358,88.428a42.308,42.308,0,0,1-.129,5.865c-.732,6.724-6.858,10.306-13.082,7.676-10.351-4.376-19.317-11.042-28.26-17.636-12.22-9.008-23.565-19.1-34.679-29.438a17.7,17.7,0,0,1-5.779-10.322,57.9,57.9,0,0,0-2.215-7.358c-.652-2.092.046-2.887,2.133-2.1a48.975,48.975,0,0,0,9.253,2.2,15.473,15.473,0,0,1,7.934,4.318c8.613,7.985,17.361,15.819,26.506,23.2a5.55,5.55,0,0,0,.856.684c1.042.535,2.17,1.735,3.281.658.865-.837.054-2.063-.352-3.037-3.342-8.014-6.73-16.008-10.072-24.022-13.811-33.121-22.86-67.592-29.156-102.849-1.956-10.952-3.757-21.945-6.18-32.8-1.595-7.141,1.164-13.221,3.2-19.574.535-1.667,1.742-1.252,2.537-.376,4.148,4.576,8.837,8.608,10.142,15.309,4.2,21.594,7.526,43.374,13.037,64.7,7.6,29.4,16.714,58.312,28.63,86.284C788.181,138.471,788.723,140.492,790.552,142.4Z" transform="translate(-725.399 30.457)"/></svg>