<svg xmlns="http://www.w3.org/2000/svg" width="111.927" height="220.704" viewBox="0 0 111.927 220.704"><defs><style>.a{fill:#ff497c;}</style></defs><path class="a" d="M573.881,44.24A111.744,111.744,0,0,0,560.028-8.94c-.52-.968-2.249-2.141-.793-3.2,1.112-.811,2.207.723,3.191,1.441,7,5.109,10.786,12.566,13.9,20.218,10.16,24.951,11.064,49.892-1.415,74.45-6.069,11.944-14.83,20.45-29.127,20.938-7.256.249-14.074-2.241-20.965-4.107-9.912-2.684-10.792-2.193-13.352,7.7-3.426,13.249-4.191,26.834-5.151,40.4-.169,2.383.712,3.392,3.089,4.019,9.506,2.505,11.928,6.945,8.155,15.88a130.173,130.173,0,0,0-8.468,30.7,9.522,9.522,0,0,1-4.214,6.939c-5.187,3.423-9.2,2.223-10.862-3.666-3.618-12.818-11.336-23.35-18.664-34.1-2.181-3.2-4.337-6.406-2.439-10.39,1.806-3.789,5.337-4.067,9-3.726a4.8,4.8,0,0,0,.837-.07c9.411-.814,9.982-1.335,10.7-10.553.889-11.43,1.874-22.848,3.8-34.162a44.858,44.858,0,0,1,5.417-15.36c3.149-5.365,10.177-8.29,16.291-7.233,7.073,1.223,13.714,3.944,20.651,5.645,8.472,2.077,15.528.067,21.226-6.462C569.256,76.7,573.855,61.642,573.881,44.24Z" transform="translate(-472.184 12.373)"/></svg>