<svg xmlns="http://www.w3.org/2000/svg" xmlns:xlink="http://www.w3.org/1999/xlink" width="1148.474" height="872.5" viewBox="0 0 1148.474 872.5"><defs><style>.a{fill:none;stroke:rgba(255,73,124,0.23);stroke-miterlimit:10;stroke-width:0.75px;}.b{fill:url(#a);}.c{fill:url(#b);}.d{fill:url(#c);}.e{fill:url(#d);}.f{fill:url(#e);}.g{fill:url(#n);}.h{fill:url(#o);}</style><radialGradient id="a" cx="-0.116" cy="-0.29" r="1.821" gradientTransform="translate(0)" gradientUnits="objectBoundingBox"><stop offset="0.211" stop-color="#55eaf7"/><stop offset="0.344" stop-color="#52bfe9"/><stop offset="0.587" stop-color="#4d77d2"/><stop offset="0.762" stop-color="#4b4ac3"/><stop offset="0.85" stop-color="#4a39be"/></radialGradient><linearGradient id="b" x1="-0.263" y1="-0.287" x2="0.481" y2="0.481" gradientUnits="objectBoundingBox"><stop offset="0.211" stop-color="#55eaf7"/><stop offset="0.375" stop-color="#52bfe9"/><stop offset="0.675" stop-color="#4d77d2"/><stop offset="0.891" stop-color="#4b4ac3"/><stop offset="1" stop-color="#4a39be"/></linearGradient><linearGradient id="c" x1="-0.029" y1="-0.323" x2="0.589" y2="0.639" xlink:href="#b"/><radialGradient id="d" cx="-0.161" cy="-0.139" r="1.485" gradientTransform="translate(0)" gradientUnits="objectBoundingBox"><stop offset="0.211" stop-color="#55eaf7"/><stop offset="0.352" stop-color="#52bfe9"/><stop offset="0.61" stop-color="#4d77d2"/><stop offset="0.796" stop-color="#4b4ac3"/><stop offset="0.89" stop-color="#4a39be"/></radialGradient><linearGradient id="e" x1="-0.259" y1="-0.343" x2="0.575" y2="0.583" gradientUnits="objectBoundingBox"><stop offset="0" stop-color="#fe346c"/><stop offset="0.211" stop-color="#ff497c"/><stop offset="0.375" stop-color="#df89a1"/><stop offset="0.675" stop-color="#e67293"/><stop offset="0.891" stop-color="#d84871"/><stop offset="1" stop-color="#c22f58"/></linearGradient><linearGradient id="n" x1="-0.115" y1="-0.368" x2="0.828" y2="0.964" xlink:href="#b"/><linearGradient id="o" x1="-0.175" y1="-0.538" x2="0.529" y2="0.545" xlink:href="#b"/></defs><g transform="translate(-162.948 -44.243)"><g transform="translate(163.693 45.635)"><g transform="translate(0 101.486)"><path class="a" d="M366.423,493.015l83.421,93.43,10.95-193.918Z" transform="translate(-104.71 -46.194)"/><path class="a" d="M441.992,392.528,641.81,557.775l-210.767,28.67Z" transform="translate(-85.909 -46.194)"/><path class="a" d="M390.911,493.015l-108.656-50.58,203.026-49.907Z" transform="translate(-129.198 -46.194)"/><path class="a" d="M485.282,414.811l-15.667-98.875L282.255,464.719Z" transform="translate(-129.198 -68.477)"/><path class="a" d="M443.056,414.811l76.258-42.645-91.925-56.23Z" transform="translate(-86.972 -68.477)"/><path class="a" d="M519.313,389.331,494.57,256.941,427.389,333.1Z" transform="translate(-86.972 -85.642)"/><path class="a" d="M450.45,350.884,348.128,195.819l169.5,78.905Z" transform="translate(-110.033 -103.425)"/><path class="a" d="M431.043,549.2l62.533,77.717L641.81,520.532Z" transform="translate(-85.909 -8.951)"/><path class="a" d="M462.767,542.741,322,595.214l203.3,25.244Z" transform="translate(-117.633 -2.489)"/><path class="a" d="M322,616.271l57.343-145.9,83.421,93.43Z" transform="translate(-117.633 -23.546)"/><path class="a" d="M322,583.388,435.645,759.574,525.3,608.632Z" transform="translate(-117.633 9.337)"/><path class="a" d="M270.38,585.248l66.642,31.023,57.343-145.9Z" transform="translate(-132.653 -23.546)"/><path class="a" d="M285.71,431.187l108.656,50.58L270.38,596.648Z" transform="translate(-132.653 -34.946)"/><path class="a" d="M284.815,596.648,220.767,480.534l79.378-49.347Z" transform="translate(-147.088 -34.946)"/><path class="a" d="M234.547,396.618l65.6,44.626-79.378,49.347Z" transform="translate(-147.088 -45.003)"/><path class="a" d="M163.693,448.181l73.68,42.411,13.78-93.973Z" transform="translate(-163.693 -45.003)"/><path class="a" d="M289.736,559.357l-85.88,97.4L356.378,590.38Z" transform="translate(-152.008 2.345)"/><path class="a" d="M479.482,626.92,623.139,606.1l4.578-85.565Z" transform="translate(-71.815 -8.951)"/><path class="a" d="M282.255,499.666l85.038-303.847L469.615,350.884Z" transform="translate(-129.198 -103.425)"/><path class="a" d="M439.525,402.139l76.258-42.645,123.56,207.893Z" transform="translate(-83.441 -55.805)"/><path class="a" d="M504.172,399.9l120.468-179.27-145.211,46.88Z" transform="translate(-71.831 -96.207)"/><path class="a" d="M231.441,455.04,382.077,195.819,297.039,499.666Z" transform="translate(-143.982 -103.425)"/><path class="a" d="M595.34,538.341l127.977-79.016L590.763,623.906Z" transform="translate(-39.439 -26.759)"/><path class="a" d="M498.6,359.493,750.132,488.37,622.156,567.386Z" transform="translate(-66.254 -55.805)"/><path class="a" d="M750.132,528.772,619.064,220.627,498.6,399.9Z" transform="translate(-66.254 -96.207)"/><path class="a" d="M348.128,208.133,476.679,153.5l40.952,133.541Z" transform="translate(-110.033 -115.739)"/><path class="a" d="M357.9,216.642l-43.361-92.394,171.912,37.758Z" transform="translate(-119.805 -124.248)"/><path class="a" d="M479.482,607.635l60.284,62.849,83.373-83.671Z" transform="translate(-71.815 10.333)"/><path class="a" d="M229.876,253.012l152.657-36.369-43.361-92.394" transform="translate(-144.438 -124.248)"/><path class="a" d="M229.876,232.189,231.9,455.04,382.533,195.819Z" transform="translate(-144.438 -103.425)"/></g><g transform="translate(548.767 27.943)"><path class="a" d="M856.624,387.976l-21.69-123.36L723.474,423.677Z" transform="translate(-549.593 -9.867)"/><path class="a" d="M742.134,443.208l-82.8-245.721,194.255,86.659Z" transform="translate(-568.253 -29.398)"/><path class="a" d="M856.624,360.174,922.337,460.4l-198.863-64.53Z" transform="translate(-549.593 17.935)"/><path class="a" d="M732.211,387.829l-38.769,92.3,237.632-27.767Z" transform="translate(-558.331 25.982)"/><path class="a" d="M741.4,388.635l-79.548-3.575,40.779,95.872Z" transform="translate(-567.521 25.176)"/><path class="a" d="M853.594,286.928l-12.213-99L659.339,200.269Z" transform="translate(-568.253 -32.179)"/><path class="a" d="M812.566,286.928l147.291,29.55-159.5-128.551Z" transform="translate(-527.226 -32.179)"/><path class="a" d="M957.1,294.166l-125.6,93.81-21.69-123.36Z" transform="translate(-524.473 -9.867)"/><path class="a" d="M959.857,334.749l-3.784-209.622L800.353,206.2Z" transform="translate(-527.226 -50.451)"/><path class="a" d="M992.52,348.981l-40.3-61.475-125.6,93.81Z" transform="translate(-519.585 -3.207)"/><path class="a" d="M892.328,467.692,826.615,367.461l165.9-32.335Z" transform="translate(-519.585 10.648)"/><path class="a" d="M977.71,335.126l-6.726,132.436-93.466.13Z" transform="translate(-504.775 10.648)"/><path class="a" d="M909.768,510.333l-32.25-72.488,93.466-.13Z" transform="translate(-504.775 40.496)"/><path class="a" d="M1004,512.577l-40.286-74.863L902.5,510.333Z" transform="translate(-497.507 40.496)"/><path class="a" d="M964.213,348.981l124.3-37.545-164.608-23.93Z" transform="translate(-491.277 -3.207)"/><path class="a" d="M841.381,200.994,708.3,143.016l-48.965,70.319Z" transform="translate(-568.253 -45.246)"/><path class="a" d="M931.074,437.815,698.73,651.289l-5.288-185.706Z" transform="translate(-558.331 40.525)"/><path class="a" d="M742.134,443.208l-79.548-3.575-3.247-242.146Z" transform="translate(-568.253 -29.398)"/><path class="a" d="M962.132,510.3,697.538,651.289,929.882,437.815Z" transform="translate(-557.139 40.525)"/><path class="a" d="M678.956,213.335l-87.042,29.872L727.921,143.016Z" transform="translate(-587.87 -45.246)"/><path class="a" d="M728.651,607.973,716.837,709.35,590.6,586.695Z" transform="translate(-588.252 83.841)"/><path class="a" d="M727.921,165.052,674.985,67.281,591.914,265.242Z" transform="translate(-587.87 -67.281)"/><path class="a" d="M842.276,223.029,656.263,67.281,709.2,165.052Z" transform="translate(-569.148 -67.281)"/><path class="a" d="M717.366,709.35,588.782,726.411l2.35-139.717Z" transform="translate(-588.782 83.841)"/><line class="a" x1="148.917" y1="49.503" transform="translate(140.399 691.814)"/><path class="a" d="M846.456,684.455,962.132,493.966,697.538,634.952Z" transform="translate(-557.139 56.862)"/></g><path class="a" d="M479.429,318.42,585.022,45.635l39.619,225.9Z" transform="translate(-71.831 -45.635)"/></g><path class="b" d="M443.027,331.575a16.772,16.772,0,1,1,0-23.719A16.772,16.772,0,0,1,443.027,331.575Z" transform="translate(72.942 74.864)"/><path class="c" d="M825.63,280.254a16.772,16.772,0,1,1,0-23.719A16.772,16.772,0,0,1,825.63,280.254Z" transform="translate(184.258 59.932)"/><path class="d" d="M609.947,533.108a16.772,16.772,0,1,1,0-23.719A16.772,16.772,0,0,1,609.947,533.108Z" transform="translate(121.506 133.498)"/><path class="e" d="M893.156,453.454a16.772,16.772,0,1,1,0-23.719A16.772,16.772,0,0,1,893.156,453.454Z" transform="translate(203.905 110.324)"/><path class="f" d="M535.1,660.55a10.825,10.825,0,1,1,0-15.308A10.825,10.825,0,0,1,535.1,660.55Z" transform="translate(-210.698 -109.534)"/><path class="f" d="M549.923,675.37a19.506,19.506,0,1,1,0-27.586A19.507,19.507,0,0,1,549.923,675.37Z" transform="translate(-4.379 -480.215)"/><path class="f" d="M529.61,655.057a7.607,7.607,0,1,1,0-10.757A7.607,7.607,0,0,1,529.61,655.057Z" transform="translate(274.52 -576.316)"/><path class="f" d="M529.36,654.807a7.461,7.461,0,1,1,0-10.551A7.461,7.461,0,0,1,529.36,654.807Z" transform="translate(-165.334 -503.17)"/><path class="f" d="M553.315,678.761a21.493,21.493,0,1,1,0-30.4A21.494,21.494,0,0,1,553.315,678.761Z" transform="translate(602.635 -515.201)"/><path class="f" d="M551.232,676.678a20.273,20.273,0,1,1,0-28.67A20.273,20.273,0,0,1,551.232,676.678Z" transform="translate(94.748 165.595)"/><path class="f" d="M526.2,651.648a5.61,5.61,0,1,1,0-7.934A5.61,5.61,0,0,1,526.2,651.648Z" transform="translate(330.41 117.257)"/><path class="f" d="M526.2,651.648a5.61,5.61,0,1,1,0-7.934A5.61,5.61,0,0,1,526.2,651.648Z" transform="translate(696.41 -20.743)"/><path class="f" d="M527.812,653.259a6.554,6.554,0,1,1,0-9.269A6.554,6.554,0,0,1,527.812,653.259Z" transform="translate(-221.534 60.313)"/><path class="g" d="M436.794,548.493a6.168,6.168,0,1,1,0-8.723A6.167,6.167,0,0,1,436.794,548.493Z" transform="translate(76.394 143.241)"/><path class="h" d="M929.661,293.257a6.168,6.168,0,1,1,0-8.723A6.168,6.168,0,0,1,929.661,293.257Z" transform="translate(219.792 68.981)"/></g></svg>